<svg id="Layer_1" enable-background="new 0 0 480.004 480.004" height="512" viewBox="0 0 480.004 480.004" width="512" xmlns="http://www.w3.org/2000/svg"><path d="m386 47.501c-4.418 0-8 3.582-8 8v54c0 4.418 3.582 8 8 8s8-3.582 8-8v-10h10c14.337 0 26-11.664 26-26s-11.663-26-26-26zm28 26c0 5.514-4.486 10-10 10h-10v-20h10c5.514 0 10 4.486 10 10zm66 286v32c0 7.298-2.523 14.439-7.104 20.106-2.778 3.436-7.816 3.97-11.251 1.192-3.436-2.777-3.97-7.814-1.192-11.25 4.591-5.679 3.548-9.412 3.548-31.048h-15c-4.418 0-8-3.582-8-8s3.582-8 8-8h14.692c-2.481-20.809-20.226-37-41.692-37-42.282 0-333.541 0-390 0-8.822 0-16 7.178-16 16v58c0 8.822 7.178 16 16 16h23.518c3.951-31.525 30.903-56 63.482-56s59.531 24.475 63.482 56h122.517c4.418 0 8 3.582 8 8 0 26.467 21.532 48 48 48s48-21.533 48-48c0-44.96-56.601-65.106-85.092-30.469-2.807 3.412-7.848 3.904-11.261 1.096-3.412-2.807-3.903-7.848-1.097-11.26 37.975-46.166 113.45-19.333 113.45 40.633 0 35.29-28.71 64-64 64-32.579 0-59.531-24.475-63.482-56h-115.036c-6.515 51.978-69.686 74.425-107.585 38.379-3.201-3.045-3.328-8.109-.283-11.31 3.046-3.202 8.108-3.328 11.311-.284 30.344 28.863 81.075 7.412 81.075-34.785 0-26.467-21.532-48-48-48s-48 21.533-48 48c0 4.418-3.582 8-8 8h-31c-17.645 0-32-14.355-32-32v-58c0-17.645 14.355-32 32-32h180v-65c0-4.418 3.582-8 8-8s8 3.582 8 8v65h132.78l-28.905-83.824c-3.337-9.675-12.455-16.176-22.689-16.176h-178.372c-10.234 0-19.353 6.501-22.689 16.177l-18.746 54.367c-1.44 4.176-5.994 6.396-10.171 4.955-4.178-1.44-6.396-5.994-4.956-10.171l18.747-54.368c5.562-16.126 20.759-26.96 37.815-26.96h178.371c17.057 0 32.254 10.834 37.814 26.96l30.703 89.04h12.298v-138.444c-40.959-4.265-73-38.987-73-81.056 0-44.939 36.561-81.5 81.5-81.5 73.701 0 109.197 90.387 56 140.714-3.21 3.035-8.272 2.897-11.31-.314-3.036-3.209-2.896-8.273.313-11.309 42.746-40.438 14.237-113.091-45.003-113.091-36.117 0-65.5 29.383-65.5 65.5s29.383 65.5 65.5 65.5c5.533 0 9.436 5.511 7.5 10.762v143.238h16c31.981 0 58 26.019 58 58z"/></svg>