<svg xmlns="http://www.w3.org/2000/svg" xmlns:xlink="http://www.w3.org/1999/xlink" width="500" zoomAndPan="magnify" viewBox="0 0 375 374.999991" height="500" preserveAspectRatio="xMidYMid meet" version="1.0"><defs><clipPath id="id1"><path d="M 181 96.226562 L 185 96.226562 L 185 104 L 181 104 Z M 181 96.226562 " clip-rule="nonzero"/></clipPath><clipPath id="id2"><path d="M 127.519531 137 L 132 137 L 132 140 L 127.519531 140 Z M 127.519531 137 " clip-rule="nonzero"/></clipPath><clipPath id="id3"><path d="M 127.519531 168 L 132 168 L 132 171 L 127.519531 171 Z M 127.519531 168 " clip-rule="nonzero"/></clipPath><clipPath id="id4"><path d="M 174 96.226562 L 177 96.226562 L 177 102 L 174 102 Z M 174 96.226562 " clip-rule="nonzero"/></clipPath><clipPath id="id5"><path d="M 190 96.226562 L 195 96.226562 L 195 104 L 190 104 Z M 190 96.226562 " clip-rule="nonzero"/></clipPath><clipPath id="id6"><path d="M 243 137 L 247.519531 137 L 247.519531 140 L 243 140 Z M 243 137 " clip-rule="nonzero"/></clipPath><clipPath id="id7"><path d="M 243 168 L 247.519531 168 L 247.519531 171 L 243 171 Z M 243 168 " clip-rule="nonzero"/></clipPath><clipPath id="id8"><path d="M 198 96.226562 L 201 96.226562 L 201 102 L 198 102 Z M 198 96.226562 " clip-rule="nonzero"/></clipPath><clipPath id="id9"><path d="M 128 102 L 247 102 L 247 210.226562 L 128 210.226562 Z M 128 102 " clip-rule="nonzero"/></clipPath></defs><path fill="rgb(0%, 59.999084%, 79.998779%)" d="M 195.332031 200.640625 L 228.929688 200.640625 C 229.800781 200.640625 230.527344 201.347656 230.527344 202.21875 C 230.527344 203.09375 229.820312 203.800781 228.929688 203.800781 L 195.332031 203.800781 L 195.332031 200.621094 Z M 195.332031 200.640625 " fill-opacity="1" fill-rule="evenodd"/><path fill="rgb(0%, 59.999084%, 79.998779%)" d="M 146.132812 200.640625 L 179.730469 200.640625 L 179.730469 203.820312 L 146.132812 203.820312 C 145.261719 203.820312 144.535156 203.113281 144.535156 202.242188 C 144.535156 201.367188 145.242188 200.660156 146.132812 200.660156 Z M 146.132812 200.640625 " fill-opacity="1" fill-rule="evenodd"/><path fill="rgb(0%, 59.999084%, 79.998779%)" d="M 195.332031 194.28125 L 212.929688 194.28125 C 213.800781 194.28125 214.507812 194.988281 214.507812 195.859375 C 214.507812 196.734375 213.800781 197.4375 212.929688 197.4375 L 195.332031 197.4375 L 195.332031 194.257812 Z M 195.332031 194.28125 " fill-opacity="1" fill-rule="evenodd"/><path fill="rgb(0%, 59.999084%, 79.998779%)" d="M 162.132812 194.28125 L 179.730469 194.28125 L 179.730469 197.460938 L 162.132812 197.460938 C 161.261719 197.460938 160.554688 196.753906 160.554688 195.878906 C 160.554688 195.007812 161.261719 194.300781 162.132812 194.300781 Z M 162.132812 194.28125 " fill-opacity="1" fill-rule="evenodd"/><path fill="rgb(0%, 59.999084%, 79.998779%)" d="M 191.578125 155.617188 C 191.453125 152.394531 189.980469 149.359375 187.53125 147.238281 C 185.082031 149.335938 183.609375 152.371094 183.484375 155.617188 C 183.359375 158.859375 184.585938 161.996094 186.867188 164.285156 L 187.550781 153.578125 L 188.238281 164.285156 C 190.519531 161.996094 191.742188 158.859375 191.617188 155.617188 Z M 191.578125 155.617188 " fill-opacity="1" fill-rule="evenodd"/><path fill="rgb(0%, 59.999084%, 79.998779%)" d="M 184.832031 146.574219 C 185.914062 144.515625 186.078125 142.105469 185.3125 139.921875 C 183.027344 140.335938 181.035156 141.707031 179.8125 143.664062 C 178.585938 145.617188 178.214844 148.007812 178.816406 150.253906 L 183.070312 143.851562 L 179.667969 150.730469 C 181.90625 150.128906 183.773438 148.609375 184.855469 146.574219 Z M 184.832031 146.574219 " fill-opacity="1" fill-rule="evenodd"/><path fill="rgb(0%, 59.999084%, 79.998779%)" d="M 181.679688 137.882812 C 182.34375 136.59375 182.445312 135.097656 181.96875 133.746094 C 180.558594 134.015625 179.3125 134.847656 178.546875 136.074219 C 177.777344 137.300781 177.550781 138.777344 177.921875 140.171875 L 180.578125 136.179688 L 178.464844 140.460938 C 179.851562 140.085938 181.035156 139.152344 181.699219 137.863281 Z M 181.679688 137.882812 " fill-opacity="1" fill-rule="evenodd"/><path fill="rgb(0%, 59.999084%, 79.998779%)" d="M 180.433594 131.585938 C 181.097656 130.316406 181.203125 128.800781 180.726562 127.449219 C 179.3125 127.71875 178.070312 128.550781 177.300781 129.777344 C 176.53125 131.003906 176.304688 132.480469 176.679688 133.871094 L 179.3125 129.878906 L 177.195312 134.164062 C 178.585938 133.789062 179.75 132.851562 180.433594 131.566406 Z M 180.433594 131.585938 " fill-opacity="1" fill-rule="evenodd"/><path fill="rgb(0%, 59.999084%, 79.998779%)" d="M 181.140625 124.289062 C 182.488281 123.082031 183.277344 121.359375 183.296875 119.550781 C 181.511719 119.238281 179.6875 119.695312 178.234375 120.796875 C 176.804688 121.898438 175.871094 123.5625 175.703125 125.347656 L 180.558594 121.816406 L 176.179688 125.929688 C 177.984375 126.097656 179.769531 125.496094 181.117188 124.289062 Z M 181.140625 124.289062 " fill-opacity="1" fill-rule="evenodd"/><path fill="rgb(0%, 59.999084%, 79.998779%)" d="M 181.90625 117.429688 C 183.027344 117.035156 183.941406 116.203125 184.417969 115.121094 C 183.421875 114.476562 182.199219 114.269531 181.058594 114.5625 C 179.914062 114.851562 178.917969 115.621094 178.359375 116.660156 L 182.199219 115.765625 L 178.503906 117.117188 C 179.542969 117.679688 180.785156 117.78125 181.90625 117.410156 Z M 181.90625 117.429688 " fill-opacity="1" fill-rule="evenodd"/><g clip-path="url(#id1)"><path fill="rgb(0%, 59.999084%, 79.998779%)" d="M 184.105469 100.34375 C 184.398438 99.199219 184.210938 97.972656 183.566406 96.953125 C 182.488281 97.433594 181.636719 98.347656 181.265625 99.46875 C 180.871094 100.589844 180.972656 101.816406 181.535156 102.878906 L 182.902344 99.179688 L 182.011719 103.023438 C 183.050781 102.460938 183.816406 101.484375 184.128906 100.320312 Z M 184.105469 100.34375 " fill-opacity="1" fill-rule="evenodd"/></g><path fill="rgb(0%, 59.999084%, 79.998779%)" d="M 179.023438 103.9375 C 179.042969 102.628906 178.523438 101.359375 177.589844 100.445312 C 176.554688 101.234375 175.871094 102.441406 175.746094 103.730469 C 175.621094 105.039062 176.035156 106.328125 176.90625 107.328125 L 177.445312 103.003906 L 177.46875 107.347656 C 178.441406 106.472656 179.023438 105.226562 179.042969 103.917969 Z M 179.023438 103.9375 " fill-opacity="1" fill-rule="evenodd"/><path fill="rgb(0%, 59.999084%, 79.998779%)" d="M 175.578125 108.035156 C 175.183594 106.785156 174.292969 105.746094 173.128906 105.164062 C 172.382812 106.246094 172.132812 107.597656 172.402344 108.863281 C 172.695312 110.152344 173.503906 111.253906 174.625 111.898438 L 173.773438 107.636719 L 175.144531 111.753906 C 175.808594 110.609375 175.953125 109.261719 175.578125 108.011719 Z M 175.578125 108.035156 " fill-opacity="1" fill-rule="evenodd"/><path fill="rgb(0%, 59.999084%, 79.998779%)" d="M 172.320312 111.527344 C 171.574219 110.175781 170.289062 109.175781 168.773438 108.800781 C 168.171875 110.238281 168.191406 111.859375 168.835938 113.273438 C 169.476562 114.683594 170.679688 115.765625 172.15625 116.265625 L 170.140625 111.527344 L 172.734375 115.972656 C 173.214844 114.5 173.066406 112.875 172.320312 111.527344 Z M 172.320312 111.527344 " fill-opacity="1" fill-rule="evenodd"/><path fill="rgb(0%, 59.999084%, 79.998779%)" d="M 169.957031 117.347656 C 169.207031 115.996094 167.921875 114.996094 166.40625 114.621094 C 165.804688 116.058594 165.824219 117.679688 166.46875 119.09375 C 167.113281 120.503906 168.316406 121.585938 169.789062 122.085938 L 167.777344 117.347656 L 170.371094 121.792969 C 170.847656 120.320312 170.703125 118.695312 169.957031 117.347656 Z M 169.957031 117.347656 " fill-opacity="1" fill-rule="evenodd"/><path fill="rgb(0%, 59.999084%, 79.998779%)" d="M 168.605469 123.75 C 167.859375 122.398438 166.574219 121.398438 165.058594 121.023438 C 164.457031 122.460938 164.476562 124.082031 165.121094 125.496094 C 165.765625 126.90625 166.96875 127.988281 168.441406 128.488281 L 166.425781 123.75 L 169.023438 128.195312 C 169.5 126.722656 169.355469 125.101562 168.605469 123.75 Z M 168.605469 123.75 " fill-opacity="1" fill-rule="evenodd"/><path fill="rgb(0%, 59.999084%, 79.998779%)" d="M 163.710938 121.066406 C 163.710938 120.089844 163.316406 119.15625 162.609375 118.488281 C 161.84375 119.09375 161.34375 119.984375 161.261719 120.964844 C 161.179688 121.941406 161.488281 122.894531 162.152344 123.625 L 162.527344 120.402344 L 162.566406 123.644531 C 163.292969 122.980469 163.710938 122.066406 163.710938 121.085938 Z M 163.710938 121.066406 " fill-opacity="1" fill-rule="evenodd"/><path fill="rgb(0%, 59.999084%, 79.998779%)" d="M 161.238281 117.617188 C 161.46875 116.660156 161.28125 115.664062 160.742188 114.851562 C 159.851562 115.265625 159.1875 116.015625 158.875 116.949219 C 158.5625 117.886719 158.667969 118.90625 159.144531 119.757812 L 160.222656 116.703125 L 159.539062 119.859375 C 160.390625 119.382812 161.011719 118.574219 161.238281 117.617188 Z M 161.238281 117.617188 " fill-opacity="1" fill-rule="evenodd"/><path fill="rgb(0%, 59.999084%, 79.998779%)" d="M 159.953125 113.75 C 160.472656 112.917969 160.636719 111.921875 160.390625 110.964844 C 159.414062 111.066406 158.542969 111.566406 157.941406 112.355469 C 157.359375 113.148438 157.109375 114.125 157.296875 115.101562 L 159.308594 112.566406 L 157.648438 115.351562 C 158.605469 115.164062 159.457031 114.601562 159.972656 113.769531 Z M 159.953125 113.75 " fill-opacity="1" fill-rule="evenodd"/><path fill="rgb(0%, 59.999084%, 79.998779%)" d="M 159.082031 109.800781 C 159.558594 109.382812 159.851562 108.78125 159.871094 108.136719 C 159.25 108.011719 158.605469 108.15625 158.085938 108.554688 C 157.566406 108.925781 157.234375 109.507812 157.171875 110.152344 L 158.894531 108.925781 L 157.339844 110.363281 C 157.980469 110.425781 158.605469 110.238281 159.082031 109.800781 Z M 159.082031 109.800781 " fill-opacity="1" fill-rule="evenodd"/><path fill="rgb(0%, 59.999084%, 79.998779%)" d="M 159.910156 106.328125 C 160.390625 105.914062 160.679688 105.308594 160.699219 104.664062 C 160.078125 104.542969 159.414062 104.707031 158.917969 105.082031 C 158.398438 105.457031 158.066406 106.039062 158.003906 106.683594 L 159.726562 105.457031 L 158.167969 106.890625 C 158.8125 106.953125 159.433594 106.765625 159.910156 106.328125 Z M 159.910156 106.328125 " fill-opacity="1" fill-rule="evenodd"/><path fill="rgb(0%, 59.999084%, 79.998779%)" d="M 159.332031 103.605469 C 159.703125 103.085938 159.828125 102.441406 159.703125 101.796875 C 159.0625 101.839844 158.480469 102.128906 158.066406 102.609375 C 157.648438 103.105469 157.464844 103.730469 157.546875 104.375 L 158.9375 102.773438 L 157.753906 104.519531 C 158.398438 104.4375 158.957031 104.082031 159.332031 103.5625 Z M 159.332031 103.605469 " fill-opacity="1" fill-rule="evenodd"/><path fill="rgb(0%, 59.999084%, 79.998779%)" d="M 154.640625 105.183594 C 154.390625 104.601562 154.414062 103.9375 154.683594 103.355469 C 155.304688 103.523438 155.804688 103.960938 156.09375 104.519531 C 156.382812 105.082031 156.425781 105.746094 156.199219 106.347656 L 155.203125 104.480469 L 155.949219 106.453125 C 155.347656 106.226562 154.871094 105.765625 154.621094 105.164062 Z M 154.640625 105.183594 " fill-opacity="1" fill-rule="evenodd"/><path fill="rgb(0%, 59.999084%, 79.998779%)" d="M 152.980469 107.722656 C 152.730469 107.140625 152.753906 106.472656 153.023438 105.890625 C 153.644531 106.058594 154.144531 106.496094 154.433594 107.054688 C 154.722656 107.636719 154.765625 108.304688 154.539062 108.886719 L 153.542969 107.015625 L 154.289062 108.988281 C 153.6875 108.761719 153.210938 108.304688 152.980469 107.699219 Z M 152.980469 107.722656 " fill-opacity="1" fill-rule="evenodd"/><path fill="rgb(0%, 59.999084%, 79.998779%)" d="M 151.757812 110.839844 C 151.464844 110.113281 151.464844 109.28125 151.796875 108.574219 C 152.566406 108.78125 153.1875 109.320312 153.542969 110.027344 C 153.894531 110.734375 153.9375 111.566406 153.667969 112.292969 L 152.441406 109.988281 L 153.375 112.441406 C 152.628906 112.171875 152.046875 111.589844 151.757812 110.859375 Z M 151.757812 110.839844 " fill-opacity="1" fill-rule="evenodd"/><path fill="rgb(0%, 59.999084%, 79.998779%)" d="M 151.445312 114.832031 C 150.90625 114.25 150.636719 113.480469 150.699219 112.691406 C 151.488281 112.628906 152.253906 112.898438 152.835938 113.4375 C 153.417969 113.976562 153.75 114.726562 153.75 115.515625 L 151.796875 113.792969 L 153.519531 115.765625 C 152.730469 115.765625 151.984375 115.433594 151.445312 114.851562 Z M 151.445312 114.832031 " fill-opacity="1" fill-rule="evenodd"/><path fill="rgb(0%, 59.999084%, 79.998779%)" d="M 151.21875 117.867188 C 150.679688 117.285156 150.410156 116.515625 150.492188 115.726562 C 151.28125 115.664062 152.046875 115.933594 152.628906 116.472656 C 153.210938 117.011719 153.542969 117.761719 153.542969 118.550781 L 151.589844 116.828125 L 153.3125 118.800781 C 152.523438 118.800781 151.777344 118.46875 151.238281 117.886719 Z M 151.21875 117.867188 " fill-opacity="1" fill-rule="evenodd"/><path fill="rgb(0%, 59.999084%, 79.998779%)" d="M 150.242188 120.484375 C 149.703125 119.902344 149.433594 119.132812 149.496094 118.34375 C 150.285156 118.28125 151.050781 118.550781 151.632812 119.09375 C 152.214844 119.632812 152.546875 120.382812 152.546875 121.171875 L 150.59375 119.425781 L 152.316406 121.398438 C 151.527344 121.398438 150.78125 121.066406 150.242188 120.484375 Z M 150.242188 120.484375 " fill-opacity="1" fill-rule="evenodd"/><path fill="rgb(0%, 59.999084%, 79.998779%)" d="M 147.128906 120.691406 C 146.695312 120.027344 146.546875 119.21875 146.734375 118.449219 C 147.523438 118.511719 148.25 118.90625 148.726562 119.527344 C 149.203125 120.152344 149.414062 120.941406 149.289062 121.730469 L 147.628906 119.714844 L 149.019531 121.941406 C 148.25 121.816406 147.542969 121.359375 147.109375 120.714844 Z M 147.128906 120.691406 " fill-opacity="1" fill-rule="evenodd"/><path fill="rgb(0%, 59.999084%, 79.998779%)" d="M 144.578125 122.042969 C 144.015625 121.710938 143.601562 121.148438 143.457031 120.527344 C 144.078125 120.277344 144.742188 120.296875 145.34375 120.589844 C 145.945312 120.878906 146.382812 121.398438 146.570312 122.023438 L 144.578125 121.128906 L 146.445312 122.273438 C 145.824219 122.460938 145.136719 122.398438 144.558594 122.066406 Z M 144.578125 122.042969 " fill-opacity="1" fill-rule="evenodd"/><path fill="rgb(0%, 59.999084%, 79.998779%)" d="M 142.023438 123.167969 C 141.464844 122.832031 141.050781 122.273438 140.90625 121.648438 C 141.507812 121.398438 142.191406 121.421875 142.792969 121.710938 C 143.394531 122.003906 143.832031 122.523438 144.015625 123.144531 L 142.023438 122.25 L 143.871094 123.394531 C 143.25 123.582031 142.566406 123.5 142.003906 123.1875 Z M 142.023438 123.167969 " fill-opacity="1" fill-rule="evenodd"/><path fill="rgb(0%, 59.999084%, 79.998779%)" d="M 142.773438 125.558594 C 142.148438 125.785156 141.464844 125.742188 140.882812 125.453125 C 141.089844 124.828125 141.546875 124.308594 142.128906 124.039062 C 142.730469 123.769531 143.414062 123.75 144.015625 123.996094 L 142.066406 124.953125 L 144.121094 124.246094 C 143.871094 124.851562 143.375 125.328125 142.75 125.558594 Z M 142.773438 125.558594 " fill-opacity="1" fill-rule="evenodd"/><path fill="rgb(0%, 59.999084%, 79.998779%)" d="M 145.613281 126.035156 C 144.992188 126.265625 144.308594 126.222656 143.726562 125.929688 C 143.933594 125.308594 144.390625 124.789062 144.972656 124.519531 C 145.574219 124.246094 146.257812 124.226562 146.859375 124.476562 L 144.910156 125.433594 L 146.964844 124.726562 C 146.714844 125.328125 146.214844 125.804688 145.59375 126.035156 Z M 145.613281 126.035156 " fill-opacity="1" fill-rule="evenodd"/><path fill="rgb(0%, 59.999084%, 79.998779%)" d="M 149.265625 126.679688 C 148.582031 126.929688 147.835938 126.886719 147.210938 126.554688 C 147.441406 125.867188 147.917969 125.308594 148.582031 124.996094 C 149.226562 124.683594 149.972656 124.683594 150.636719 124.953125 L 148.5 126.015625 L 150.742188 125.246094 C 150.46875 125.910156 149.929688 126.429688 149.246094 126.679688 Z M 149.265625 126.679688 " fill-opacity="1" fill-rule="evenodd"/><path fill="rgb(0%, 59.999084%, 79.998779%)" d="M 152.171875 127.863281 C 151.382812 128.15625 150.492188 128.113281 149.722656 127.71875 C 149.992188 126.90625 150.574219 126.242188 151.34375 125.890625 C 152.109375 125.535156 153.003906 125.515625 153.789062 125.828125 L 151.257812 127.074219 L 153.9375 126.160156 C 153.605469 126.949219 152.980469 127.574219 152.171875 127.863281 Z M 152.171875 127.863281 " fill-opacity="1" fill-rule="evenodd"/><path fill="rgb(0%, 59.999084%, 79.998779%)" d="M 154.890625 130.898438 C 153.726562 131.335938 152.421875 131.253906 151.300781 130.691406 C 151.675781 129.507812 152.546875 128.53125 153.6875 127.988281 C 154.828125 127.46875 156.113281 127.429688 157.277344 127.90625 L 153.5625 129.734375 L 157.464844 128.382812 C 156.984375 129.546875 156.050781 130.441406 154.871094 130.878906 Z M 154.890625 130.898438 " fill-opacity="1" fill-rule="evenodd"/><path fill="rgb(0%, 59.999084%, 79.998779%)" d="M 157.796875 133.707031 C 156.632812 134.140625 155.328125 134.058594 154.207031 133.496094 C 154.601562 132.3125 155.449219 131.335938 156.59375 130.796875 C 157.734375 130.277344 159.019531 130.234375 160.183594 130.710938 L 156.46875 132.542969 L 160.390625 131.191406 C 159.910156 132.355469 158.976562 133.25 157.796875 133.683594 Z M 157.796875 133.707031 " fill-opacity="1" fill-rule="evenodd"/><path fill="rgb(0%, 59.999084%, 79.998779%)" d="M 159.789062 137.175781 C 158.542969 137.113281 157.378906 136.53125 156.570312 135.578125 C 157.378906 134.640625 158.5625 134.078125 159.808594 134.039062 C 161.054688 133.996094 162.257812 134.476562 163.148438 135.367188 L 159.019531 135.597656 L 163.148438 135.886719 C 162.257812 136.761719 161.03125 137.21875 159.789062 137.15625 Z M 159.789062 137.175781 " fill-opacity="1" fill-rule="evenodd"/><path fill="rgb(0%, 59.999084%, 79.998779%)" d="M 163.417969 141.667969 C 162.175781 141.605469 161.011719 141.023438 160.203125 140.066406 C 161.011719 139.132812 162.195312 138.570312 163.441406 138.527344 C 164.683594 138.488281 165.886719 138.964844 166.78125 139.859375 L 162.652344 140.085938 L 166.78125 140.378906 C 165.886719 141.25 164.664062 141.730469 163.417969 141.667969 Z M 163.417969 141.667969 " fill-opacity="1" fill-rule="evenodd"/><path fill="rgb(0%, 59.999084%, 79.998779%)" d="M 164.601562 146.550781 C 163.210938 146.199219 162.050781 145.261719 161.363281 143.996094 C 162.507812 143.121094 163.957031 142.789062 165.371094 143.039062 C 166.78125 143.289062 168.003906 144.121094 168.792969 145.324219 L 164.105469 144.597656 L 168.648438 145.90625 C 167.445312 146.675781 165.972656 146.90625 164.582031 146.550781 Z M 164.601562 146.550781 " fill-opacity="1" fill-rule="evenodd"/><path fill="rgb(0%, 59.999084%, 79.998779%)" d="M 155.988281 147.425781 C 154.683594 145.886719 154.082031 143.890625 154.332031 141.894531 C 156.34375 141.8125 158.273438 142.582031 159.703125 144.015625 C 161.117188 145.449219 161.882812 147.382812 161.800781 149.398438 L 157.007812 144.785156 L 161.199219 149.960938 C 159.1875 149.878906 157.316406 148.964844 156.011719 147.425781 Z M 155.988281 147.425781 " fill-opacity="1" fill-rule="evenodd"/><path fill="rgb(0%, 59.999084%, 79.998779%)" d="M 150.386719 148.445312 C 149.433594 147.300781 148.976562 145.824219 149.140625 144.328125 C 150.636719 144.265625 152.089844 144.847656 153.125 145.90625 C 154.183594 146.96875 154.746094 148.421875 154.683594 149.917969 L 151.113281 146.488281 L 154.226562 150.335938 C 152.730469 150.273438 151.34375 149.585938 150.367188 148.445312 Z M 150.386719 148.445312 " fill-opacity="1" fill-rule="evenodd"/><path fill="rgb(0%, 59.999084%, 79.998779%)" d="M 143.832031 147.464844 C 143.1875 146.117188 143.105469 144.554688 143.644531 143.183594 C 145.097656 143.496094 146.363281 144.410156 147.109375 145.699219 C 147.855469 146.988281 148.042969 148.527344 147.628906 149.960938 L 145.011719 145.761719 L 147.066406 150.273438 C 145.636719 149.835938 144.453125 148.839844 143.808594 147.488281 Z M 143.832031 147.464844 " fill-opacity="1" fill-rule="evenodd"/><path fill="rgb(0%, 59.999084%, 79.998779%)" d="M 138.433594 143.476562 C 138.375 141.980469 138.953125 140.523438 139.992188 139.484375 C 141.195312 140.359375 141.984375 141.707031 142.171875 143.183594 C 142.355469 144.660156 141.902344 146.15625 140.925781 147.300781 L 140.21875 142.394531 L 140.304688 147.34375 C 139.160156 146.363281 138.496094 144.972656 138.433594 143.476562 Z M 138.433594 143.476562 " fill-opacity="1" fill-rule="evenodd"/><path fill="rgb(0%, 59.999084%, 79.998779%)" d="M 135.386719 140.730469 C 135.34375 139.859375 135.675781 139.007812 136.296875 138.382812 C 137.003906 138.902344 137.460938 139.691406 137.5625 140.542969 C 137.667969 141.417969 137.398438 142.289062 136.835938 142.957031 L 136.421875 140.085938 L 136.464844 142.996094 C 135.800781 142.4375 135.40625 141.605469 135.363281 140.730469 Z M 135.386719 140.730469 " fill-opacity="1" fill-rule="evenodd"/><path fill="rgb(0%, 59.999084%, 79.998779%)" d="M 132.3125 137.074219 C 132.273438 136.199219 132.605469 135.347656 133.226562 134.722656 C 133.933594 135.242188 134.390625 136.035156 134.492188 136.90625 C 134.597656 137.78125 134.328125 138.652344 133.765625 139.316406 L 133.351562 136.449219 L 133.394531 139.359375 C 132.730469 138.796875 132.335938 137.96875 132.292969 137.09375 Z M 132.3125 137.074219 " fill-opacity="1" fill-rule="evenodd"/><path fill="rgb(0%, 59.999084%, 79.998779%)" d="M 129.742188 134.203125 C 129.699219 133.332031 130.03125 132.480469 130.652344 131.855469 C 131.359375 132.375 131.816406 133.164062 131.917969 134.039062 C 132.023438 134.910156 131.753906 135.785156 131.195312 136.449219 L 130.777344 133.582031 L 130.820312 136.492188 C 130.15625 135.910156 129.761719 135.097656 129.71875 134.226562 Z M 129.742188 134.203125 " fill-opacity="1" fill-rule="evenodd"/><g clip-path="url(#id2)"><path fill="rgb(0%, 59.999084%, 79.998779%)" d="M 129.285156 139.546875 C 128.515625 139.132812 127.9375 138.425781 127.707031 137.570312 C 128.496094 137.21875 129.410156 137.21875 130.21875 137.550781 C 131.027344 137.90625 131.648438 138.570312 131.941406 139.378906 L 129.242188 138.300781 L 131.773438 139.714844 C 130.945312 140.003906 130.03125 139.941406 129.261719 139.527344 Z M 129.285156 139.546875 " fill-opacity="1" fill-rule="evenodd"/></g><path fill="rgb(0%, 59.999084%, 79.998779%)" d="M 130.28125 143.183594 C 129.511719 142.769531 128.929688 142.0625 128.703125 141.210938 C 129.511719 140.855469 130.40625 140.855469 131.214844 141.1875 C 132.023438 141.542969 132.644531 142.207031 132.9375 143.019531 L 130.238281 141.9375 L 132.769531 143.351562 C 131.941406 143.640625 131.027344 143.578125 130.257812 143.164062 Z M 130.28125 143.183594 " fill-opacity="1" fill-rule="evenodd"/><path fill="rgb(0%, 59.999084%, 79.998779%)" d="M 132.066406 146.550781 C 131.132812 146.386719 130.28125 145.824219 129.78125 145.015625 C 130.507812 144.371094 131.464844 144.078125 132.417969 144.160156 C 133.371094 144.265625 134.242188 144.742188 134.824219 145.511719 L 131.648438 145.261719 L 134.761719 145.90625 C 133.996094 146.488281 133.019531 146.71875 132.066406 146.550781 Z M 132.066406 146.550781 " fill-opacity="1" fill-rule="evenodd"/><path fill="rgb(0%, 59.999084%, 79.998779%)" d="M 134.554688 149.796875 C 133.601562 149.898438 132.644531 149.609375 131.917969 148.984375 C 132.417969 148.171875 133.246094 147.589844 134.179688 147.40625 C 135.117188 147.21875 136.109375 147.445312 136.878906 148.007812 L 133.765625 148.691406 L 136.941406 148.402344 C 136.382812 149.171875 135.507812 149.691406 134.554688 149.796875 Z M 134.554688 149.796875 " fill-opacity="1" fill-rule="evenodd"/><path fill="rgb(0%, 59.999084%, 79.998779%)" d="M 136.339844 152.664062 C 135.386719 152.765625 134.429688 152.476562 133.703125 151.851562 C 134.203125 151.042969 135.03125 150.460938 135.964844 150.273438 C 136.898438 150.085938 137.894531 150.316406 138.664062 150.875 L 135.550781 151.5625 L 138.726562 151.269531 C 138.164062 152.039062 137.292969 152.558594 136.339844 152.664062 Z M 136.339844 152.664062 " fill-opacity="1" fill-rule="evenodd"/><path fill="rgb(0%, 59.999084%, 79.998779%)" d="M 137.625 155.40625 C 136.671875 155.511719 135.71875 155.21875 134.992188 154.597656 C 135.488281 153.785156 136.320312 153.203125 137.253906 153.015625 C 138.1875 152.828125 139.183594 153.058594 139.949219 153.621094 L 136.835938 154.304688 L 140.011719 154.015625 C 139.453125 154.785156 138.582031 155.304688 137.625 155.40625 Z M 137.625 155.40625 " fill-opacity="1" fill-rule="evenodd"/><path fill="rgb(0%, 59.999084%, 79.998779%)" d="M 134.949219 159.378906 C 133.996094 159.480469 133.039062 159.191406 132.3125 158.566406 C 132.8125 157.757812 133.640625 157.175781 134.574219 156.988281 C 135.507812 156.800781 136.503906 157.007812 137.273438 157.589844 L 134.160156 158.277344 L 137.335938 157.984375 C 136.773438 158.753906 135.902344 159.273438 134.949219 159.378906 Z M 134.949219 159.378906 " fill-opacity="1" fill-rule="evenodd"/><path fill="rgb(0%, 59.999084%, 79.998779%)" d="M 132.644531 163.160156 C 131.773438 163.265625 130.882812 162.996094 130.21875 162.414062 C 130.675781 161.664062 131.441406 161.125 132.3125 160.957031 C 133.183594 160.792969 134.078125 160.976562 134.804688 161.5 L 131.941406 162.140625 L 134.867188 161.871094 C 134.347656 162.578125 133.539062 163.058594 132.667969 163.160156 Z M 132.644531 163.160156 " fill-opacity="1" fill-rule="evenodd"/><path fill="rgb(0%, 59.999084%, 79.998779%)" d="M 130.652344 166.527344 C 129.78125 166.632812 128.890625 166.363281 128.226562 165.78125 C 128.683594 165.03125 129.449219 164.511719 130.320312 164.324219 C 131.195312 164.160156 132.085938 164.347656 132.8125 164.867188 L 129.949219 165.488281 L 132.875 165.21875 C 132.355469 165.925781 131.546875 166.402344 130.675781 166.507812 Z M 130.652344 166.527344 " fill-opacity="1" fill-rule="evenodd"/><g clip-path="url(#id3)"><path fill="rgb(0%, 59.999084%, 79.998779%)" d="M 130.050781 170.394531 C 129.261719 170.789062 128.328125 170.832031 127.519531 170.519531 C 127.707031 169.648438 128.246094 168.898438 128.992188 168.460938 C 129.761719 168.003906 130.675781 167.902344 131.503906 168.148438 L 129.035156 169.710938 L 131.691406 168.484375 C 131.441406 169.335938 130.839844 170.042969 130.050781 170.4375 Z M 130.050781 170.394531 " fill-opacity="1" fill-rule="evenodd"/></g><path fill="rgb(0%, 59.999084%, 79.998779%)" d="M 132.519531 172.246094 C 132.128906 173.035156 131.421875 173.636719 130.589844 173.886719 C 130.21875 173.097656 130.175781 172.160156 130.507812 171.351562 C 130.839844 170.519531 131.484375 169.875 132.3125 169.5625 L 131.296875 172.308594 L 132.644531 169.710938 C 132.957031 170.539062 132.914062 171.457031 132.542969 172.246094 Z M 132.519531 172.246094 " fill-opacity="1" fill-rule="evenodd"/><path fill="rgb(0%, 59.999084%, 79.998779%)" d="M 135.882812 168.816406 C 136.027344 169.6875 135.800781 170.582031 135.261719 171.289062 C 134.492188 170.851562 133.933594 170.125 133.726562 169.273438 C 133.515625 168.421875 133.664062 167.503906 134.160156 166.757812 L 134.929688 169.585938 L 134.511719 166.675781 C 135.261719 167.171875 135.757812 167.941406 135.902344 168.816406 Z M 135.882812 168.816406 " fill-opacity="1" fill-rule="evenodd"/><path fill="rgb(0%, 59.999084%, 79.998779%)" d="M 138.144531 166.238281 C 138.289062 167.109375 138.0625 168.003906 137.523438 168.710938 C 136.753906 168.273438 136.195312 167.546875 135.988281 166.695312 C 135.777344 165.84375 135.925781 164.929688 136.421875 164.179688 L 137.191406 167.007812 L 136.773438 164.097656 C 137.523438 164.574219 138.019531 165.363281 138.144531 166.238281 Z M 138.144531 166.238281 " fill-opacity="1" fill-rule="evenodd"/><path fill="rgb(0%, 59.999084%, 79.998779%)" d="M 140.78125 163.367188 C 140.925781 164.242188 140.695312 165.136719 140.15625 165.84375 C 139.390625 165.40625 138.828125 164.679688 138.621094 163.828125 C 138.414062 162.972656 138.558594 162.058594 139.058594 161.3125 L 139.824219 164.136719 L 139.410156 161.226562 C 140.136719 161.707031 140.65625 162.496094 140.800781 163.367188 Z M 140.78125 163.367188 " fill-opacity="1" fill-rule="evenodd"/><path fill="rgb(0%, 59.999084%, 79.998779%)" d="M 143.851562 161 C 143.996094 161.871094 143.769531 162.765625 143.230469 163.472656 C 142.460938 163.035156 141.902344 162.308594 141.691406 161.457031 C 141.484375 160.605469 141.632812 159.691406 142.128906 158.941406 L 142.898438 161.769531 L 142.480469 158.859375 C 143.207031 159.355469 143.726562 160.125 143.851562 161 Z M 143.851562 161 " fill-opacity="1" fill-rule="evenodd"/><path fill="rgb(0%, 59.999084%, 79.998779%)" d="M 147.046875 162.082031 C 146.734375 162.910156 146.09375 163.578125 145.28125 163.910156 C 144.828125 163.160156 144.703125 162.246094 144.949219 161.394531 C 145.199219 160.542969 145.78125 159.835938 146.570312 159.417969 L 145.84375 162.265625 L 146.921875 159.542969 C 147.316406 160.335938 147.378906 161.25 147.066406 162.082031 Z M 147.046875 162.082031 " fill-opacity="1" fill-rule="evenodd"/><path fill="rgb(0%, 59.999084%, 79.998779%)" d="M 150.511719 159.523438 C 150.199219 160.355469 149.558594 161.019531 148.75 161.351562 C 148.292969 160.605469 148.167969 159.691406 148.394531 158.835938 C 148.644531 157.984375 149.226562 157.277344 150.015625 156.863281 L 149.289062 159.710938 L 150.367188 156.988281 C 150.761719 157.777344 150.824219 158.691406 150.511719 159.523438 Z M 150.511719 159.523438 " fill-opacity="1" fill-rule="evenodd"/><path fill="rgb(0%, 59.999084%, 79.998779%)" d="M 154.183594 158.027344 C 153.582031 158.671875 152.753906 159.066406 151.859375 159.066406 C 151.714844 158.191406 151.945312 157.300781 152.484375 156.59375 C 153.023438 155.886719 153.832031 155.449219 154.703125 155.367188 L 152.960938 157.734375 L 154.972656 155.617188 C 155.054688 156.488281 154.765625 157.382812 154.164062 158.027344 Z M 154.183594 158.027344 " fill-opacity="1" fill-rule="evenodd"/><path fill="rgb(0%, 59.999084%, 79.998779%)" d="M 158.191406 157.734375 C 157.589844 158.378906 156.757812 158.773438 155.867188 158.773438 C 155.71875 157.902344 155.949219 157.007812 156.488281 156.300781 C 157.027344 155.59375 157.835938 155.15625 158.707031 155.074219 L 156.964844 157.445312 L 158.976562 155.324219 C 159.0625 156.199219 158.75 157.070312 158.167969 157.734375 Z M 158.191406 157.734375 " fill-opacity="1" fill-rule="evenodd"/><path fill="rgb(0%, 59.999084%, 79.998779%)" d="M 151.921875 163.453125 C 151.113281 163.785156 150.179688 163.785156 149.390625 163.410156 C 149.621094 162.558594 150.199219 161.832031 150.988281 161.4375 C 151.777344 161.019531 152.691406 160.976562 153.519531 161.269531 L 150.949219 162.683594 L 153.667969 161.601562 C 153.375 162.433594 152.730469 163.097656 151.921875 163.453125 Z M 151.921875 163.453125 " fill-opacity="1" fill-rule="evenodd"/><path fill="rgb(0%, 59.999084%, 79.998779%)" d="M 150.160156 166.984375 C 149.351562 167.320312 148.417969 167.320312 147.628906 166.945312 C 147.855469 166.09375 148.4375 165.363281 149.226562 164.96875 C 150.015625 164.554688 150.925781 164.492188 151.757812 164.804688 L 149.183594 166.21875 L 151.902344 165.136719 C 151.613281 165.96875 150.96875 166.632812 150.160156 166.984375 Z M 150.160156 166.984375 " fill-opacity="1" fill-rule="evenodd"/><path fill="rgb(0%, 59.999084%, 79.998779%)" d="M 148.375 171.082031 C 147.566406 171.433594 146.632812 171.414062 145.84375 171.039062 C 146.070312 170.1875 146.652344 169.480469 147.441406 169.066406 C 148.230469 168.648438 149.140625 168.605469 149.972656 168.898438 L 147.398438 170.3125 L 150.117188 169.230469 C 149.804688 170.0625 149.183594 170.726562 148.375 171.082031 Z M 148.375 171.082031 " fill-opacity="1" fill-rule="evenodd"/><path fill="rgb(0%, 59.999084%, 79.998779%)" d="M 147.792969 174.988281 C 146.984375 175.34375 146.050781 175.320312 145.261719 174.949219 C 145.492188 174.09375 146.070312 173.386719 146.859375 172.972656 C 147.648438 172.558594 148.5625 172.515625 149.390625 172.804688 L 146.820312 174.21875 L 149.535156 173.140625 C 149.226562 173.96875 148.601562 174.636719 147.792969 174.988281 Z M 147.792969 174.988281 " fill-opacity="1" fill-rule="evenodd"/><path fill="rgb(0%, 59.999084%, 79.998779%)" d="M 148.6875 179.3125 C 148.25 180.082031 147.523438 180.644531 146.671875 180.851562 C 146.339844 180.039062 146.339844 179.105469 146.714844 178.316406 C 147.089844 177.503906 147.773438 176.878906 148.601562 176.609375 L 147.460938 179.3125 L 148.933594 176.777344 C 149.203125 177.609375 149.121094 178.542969 148.707031 179.3125 Z M 148.6875 179.3125 " fill-opacity="1" fill-rule="evenodd"/><path fill="rgb(0%, 59.999084%, 79.998779%)" d="M 152.628906 178.648438 C 152.710938 179.519531 152.441406 180.414062 151.859375 181.078125 C 151.113281 180.601562 150.59375 179.832031 150.429688 178.980469 C 150.261719 178.105469 150.46875 177.214844 151.011719 176.507812 L 151.613281 179.375 L 151.382812 176.445312 C 152.089844 176.984375 152.546875 177.773438 152.628906 178.667969 Z M 197.84375 176.484375 C 198.695312 177.859375 200.0625 178.8125 201.640625 179.105469 C 202.179688 177.585938 202.078125 175.925781 201.351562 174.488281 C 200.625 173.054688 199.316406 171.996094 197.78125 171.558594 L 200.105469 176.359375 L 197.199219 171.890625 C 196.765625 173.449219 197.015625 175.09375 197.863281 176.464844 Z M 201.164062 171.933594 C 202.015625 173.304688 203.382812 174.261719 204.960938 174.574219 C 205.523438 173.054688 205.417969 171.394531 204.671875 169.957031 C 203.945312 168.523438 202.636719 167.464844 201.101562 167.027344 L 203.425781 171.828125 L 200.519531 167.359375 C 200.085938 168.917969 200.332031 170.5625 201.164062 171.933594 Z M 204.753906 168.210938 C 205.042969 169.480469 205.832031 170.582031 206.953125 171.246094 C 207.785156 170.230469 208.136719 168.917969 207.96875 167.628906 C 207.785156 166.339844 207.078125 165.175781 206 164.429688 L 206.496094 168.730469 L 205.460938 164.53125 C 204.710938 165.613281 204.464844 166.945312 204.734375 168.210938 Z M 208.613281 167.195312 C 208.902344 168.460938 209.691406 169.5625 210.8125 170.230469 C 211.644531 169.210938 211.996094 167.902344 211.828125 166.613281 C 211.644531 165.324219 210.9375 164.160156 209.859375 163.410156 L 210.355469 167.714844 L 209.320312 163.515625 C 208.570312 164.59375 208.324219 165.925781 208.59375 167.195312 Z M 212.703125 167.320312 C 212.972656 168.484375 213.699219 169.5 214.734375 170.105469 C 215.503906 169.167969 215.835938 167.964844 215.667969 166.777344 C 215.503906 165.59375 214.839844 164.53125 213.863281 163.847656 L 214.320312 167.796875 L 213.367188 163.929688 C 212.679688 164.90625 212.453125 166.15625 212.703125 167.320312 Z M 217.164062 169.066406 C 217.101562 169.9375 217.410156 170.8125 218.011719 171.457031 C 218.738281 170.957031 219.238281 170.1875 219.382812 169.3125 C 219.507812 168.441406 219.277344 167.546875 218.738281 166.859375 L 218.222656 169.75 L 218.367188 166.820312 C 217.679688 167.359375 217.246094 168.191406 217.183594 169.066406 Z M 219.757812 171.308594 C 219.339844 172.101562 219.277344 173.015625 219.570312 173.847656 C 220.441406 173.679688 221.207031 173.160156 221.664062 172.410156 C 222.144531 171.664062 222.265625 170.75 222.058594 169.894531 L 220.441406 172.347656 L 221.75 169.730469 C 220.898438 169.957031 220.171875 170.539062 219.757812 171.308594 Z M 220.835938 174.511719 C 220.421875 175.300781 220.359375 176.214844 220.648438 177.046875 C 221.519531 176.878906 222.289062 176.359375 222.746094 175.613281 C 223.222656 174.863281 223.347656 173.949219 223.117188 173.097656 L 221.5 175.53125 L 222.808594 172.910156 C 221.957031 173.140625 221.230469 173.722656 220.816406 174.511719 Z M 222.371094 178.625 C 222.289062 179.5 222.558594 180.394531 223.140625 181.058594 C 223.886719 180.582031 224.40625 179.8125 224.570312 178.960938 C 224.738281 178.085938 224.527344 177.191406 223.988281 176.484375 L 223.386719 179.355469 L 223.617188 176.421875 C 222.910156 176.964844 222.453125 177.753906 222.371094 178.648438 Z M 177.15625 176.464844 C 176.304688 177.835938 174.933594 178.792969 173.359375 179.085938 C 172.796875 177.566406 172.921875 175.902344 173.648438 174.46875 C 174.375 173.035156 175.683594 171.976562 177.21875 171.539062 L 174.894531 176.339844 L 177.800781 171.871094 C 178.234375 173.429688 177.984375 175.070312 177.136719 176.445312 Z M 173.835938 171.914062 C 172.984375 173.285156 171.617188 174.242188 170.039062 174.550781 C 169.476562 173.035156 169.601562 171.371094 170.328125 169.9375 C 171.054688 168.503906 172.363281 167.441406 173.898438 167.007812 L 171.574219 171.808594 L 174.480469 167.339844 C 174.914062 168.898438 174.664062 170.539062 173.816406 171.914062 Z M 170.246094 168.191406 C 169.957031 169.460938 169.167969 170.5625 168.027344 171.226562 C 167.195312 170.207031 166.84375 168.898438 167.007812 167.609375 C 167.195312 166.320312 167.902344 165.15625 168.980469 164.410156 L 168.480469 168.710938 L 169.519531 164.511719 C 170.265625 165.59375 170.515625 166.921875 170.246094 168.191406 Z M 166.386719 167.171875 C 166.097656 168.441406 165.308594 169.542969 164.164062 170.207031 C 163.335938 169.1875 162.984375 167.878906 163.148438 166.589844 C 163.335938 165.300781 164.042969 164.136719 165.121094 163.390625 L 164.621094 167.691406 L 165.660156 163.492188 C 166.40625 164.574219 166.65625 165.90625 166.386719 167.171875 Z M 162.296875 167.296875 C 162.027344 168.460938 161.300781 169.480469 160.265625 170.082031 C 159.519531 169.148438 159.164062 167.941406 159.351562 166.757812 C 159.519531 165.574219 160.160156 164.511719 161.15625 163.828125 L 160.699219 167.777344 L 161.65625 163.910156 C 162.339844 164.886719 162.566406 166.132812 162.320312 167.296875 Z M 157.835938 169.042969 C 157.898438 169.917969 157.589844 170.789062 157.007812 171.433594 C 156.28125 170.9375 155.78125 170.167969 155.636719 169.292969 C 155.492188 168.421875 155.742188 167.527344 156.28125 166.839844 L 156.800781 169.730469 L 156.652344 166.800781 C 157.339844 167.339844 157.773438 168.171875 157.835938 169.042969 Z M 155.242188 171.289062 C 155.660156 172.078125 155.71875 172.992188 155.429688 173.824219 C 154.558594 173.660156 153.789062 173.140625 153.335938 172.390625 C 152.855469 171.640625 152.710938 170.726562 152.941406 169.875 L 154.558594 172.328125 L 153.25 169.710938 C 154.101562 169.9375 154.828125 170.519531 155.242188 171.289062 Z M 154.164062 174.488281 C 154.578125 175.28125 154.640625 176.195312 154.351562 177.027344 C 153.480469 176.859375 152.710938 176.339844 152.253906 175.59375 C 151.777344 174.84375 151.632812 173.929688 151.859375 173.078125 L 153.480469 175.507812 L 152.171875 172.890625 C 153.023438 173.117188 153.75 173.699219 154.164062 174.488281 Z M 154.164062 174.488281 " fill-opacity="1" fill-rule="evenodd"/><path fill="rgb(0%, 59.999084%, 79.998779%)" d="M 148.726562 140.359375 C 147.648438 139.089844 147.152344 137.425781 147.359375 135.761719 C 149.019531 135.703125 150.636719 136.34375 151.820312 137.53125 C 153.003906 138.714844 153.625 140.335938 153.5625 142 L 149.578125 138.175781 L 153.0625 142.476562 C 151.40625 142.394531 149.828125 141.644531 148.75 140.359375 Z M 148.726562 140.359375 " fill-opacity="1" fill-rule="evenodd"/><path fill="rgb(0%, 59.999084%, 79.998779%)" d="M 143.683594 139.609375 C 143.25 138.570312 143.269531 137.40625 143.726562 136.386719 C 144.804688 136.679688 145.71875 137.425781 146.214844 138.425781 C 146.734375 139.421875 146.820312 140.585938 146.425781 141.644531 L 144.640625 138.382812 L 145.988281 141.832031 C 144.929688 141.460938 144.101562 140.648438 143.664062 139.609375 Z M 143.683594 139.609375 " fill-opacity="1" fill-rule="evenodd"/><path fill="rgb(0%, 59.999084%, 79.998779%)" d="M 138.644531 136.097656 C 138.207031 135.058594 138.226562 133.894531 138.683594 132.875 C 139.761719 133.164062 140.675781 133.914062 141.175781 134.910156 C 141.691406 135.910156 141.753906 137.074219 141.382812 138.132812 L 139.597656 134.871094 L 140.945312 138.320312 C 139.886719 137.945312 139.058594 137.136719 138.621094 136.097656 Z M 138.644531 136.097656 " fill-opacity="1" fill-rule="evenodd"/><path fill="rgb(0%, 59.999084%, 79.998779%)" d="M 134.078125 132.625 C 134.015625 131.503906 134.410156 130.402344 135.175781 129.589844 C 136.089844 130.234375 136.714844 131.210938 136.878906 132.332031 C 137.046875 133.433594 136.734375 134.578125 136.027344 135.453125 L 135.40625 131.792969 L 135.550781 135.515625 C 134.679688 134.808594 134.140625 133.769531 134.078125 132.644531 Z M 134.078125 132.625 " fill-opacity="1" fill-rule="evenodd"/><path fill="rgb(0%, 59.999084%, 79.998779%)" d="M 144.617188 128.40625 C 143.621094 128.902344 142.855469 129.796875 142.542969 130.878906 C 143.5625 131.355469 144.722656 131.398438 145.761719 130.984375 C 146.796875 130.566406 147.628906 129.734375 148.023438 128.695312 L 144.535156 129.984375 L 147.835938 128.257812 C 146.796875 127.863281 145.613281 127.90625 144.617188 128.40625 Z M 144.617188 128.40625 " fill-opacity="1" fill-rule="evenodd"/><path fill="rgb(0%, 59.999084%, 79.998779%)" d="M 141.195312 126.742188 C 140.488281 127.09375 139.972656 127.71875 139.742188 128.445312 C 140.449219 128.777344 141.257812 128.800781 141.984375 128.53125 C 142.710938 128.238281 143.269531 127.65625 143.5625 126.929688 L 141.132812 127.824219 L 143.414062 126.617188 C 142.6875 126.347656 141.878906 126.367188 141.175781 126.722656 Z M 141.195312 126.742188 " fill-opacity="1" fill-rule="evenodd"/><path fill="rgb(0%, 59.999084%, 79.998779%)" d="M 147.648438 131.273438 C 146.941406 131.625 146.425781 132.25 146.195312 133 C 146.902344 133.332031 147.710938 133.351562 148.4375 133.082031 C 149.164062 132.789062 149.722656 132.207031 150.015625 131.480469 L 147.585938 132.375 L 149.867188 131.167969 C 149.140625 130.898438 148.332031 130.921875 147.628906 131.273438 Z M 147.648438 131.273438 " fill-opacity="1" fill-rule="evenodd"/><path fill="rgb(0%, 59.999084%, 79.998779%)" d="M 150.84375 132.9375 C 150.136719 133.289062 149.621094 133.894531 149.390625 134.640625 C 150.097656 134.972656 150.90625 134.996094 151.632812 134.722656 C 152.359375 134.433594 152.917969 133.851562 153.210938 133.125 L 150.78125 134.015625 L 153.0625 132.8125 C 152.339844 132.542969 151.527344 132.5625 150.824219 132.914062 Z M 150.84375 132.9375 " fill-opacity="1" fill-rule="evenodd"/><path fill="rgb(0%, 59.999084%, 79.998779%)" d="M 153.582031 134.933594 C 152.792969 134.972656 152.070312 135.328125 151.570312 135.929688 C 152.089844 136.511719 152.816406 136.867188 153.582031 136.90625 C 154.351562 136.925781 155.117188 136.636719 155.660156 136.074219 L 153.085938 135.929688 L 155.660156 135.742188 C 155.097656 135.203125 154.351562 134.910156 153.5625 134.933594 Z M 153.582031 134.933594 " fill-opacity="1" fill-rule="evenodd"/><path fill="rgb(0%, 59.999084%, 79.998779%)" d="M 157.546875 138.113281 C 156.820312 137.820312 156.011719 137.863281 155.304688 138.195312 C 155.535156 138.945312 156.050781 139.566406 156.757812 139.898438 C 157.464844 140.234375 158.273438 140.273438 159 139.984375 L 156.695312 138.796875 L 159.125 139.691406 C 158.832031 138.964844 158.273438 138.382812 157.546875 138.113281 Z M 157.546875 138.113281 " fill-opacity="1" fill-rule="evenodd"/><path fill="rgb(0%, 59.999084%, 79.998779%)" d="M 143.582031 167.234375 C 143.582031 168.128906 143.230469 168.960938 142.585938 169.5625 C 141.878906 169.023438 141.445312 168.210938 141.382812 167.320312 C 141.300781 166.425781 141.609375 165.550781 142.191406 164.90625 L 142.503906 167.816406 L 142.566406 164.886719 C 143.207031 165.488281 143.582031 166.320312 143.601562 167.214844 Z M 143.582031 167.234375 " fill-opacity="1" fill-rule="evenodd"/><path fill="rgb(0%, 59.999084%, 79.998779%)" d="M 140.636719 169.605469 C 140.636719 170.5 140.28125 171.332031 139.640625 171.933594 C 138.933594 171.394531 138.496094 170.582031 138.433594 169.6875 C 138.351562 168.792969 138.664062 167.921875 139.246094 167.277344 L 139.554688 170.1875 L 139.597656 167.257812 C 140.242188 167.859375 140.613281 168.691406 140.636719 169.585938 Z M 140.636719 169.605469 " fill-opacity="1" fill-rule="evenodd"/><path fill="rgb(0%, 59.999084%, 79.998779%)" d="M 143.769531 173.617188 C 143.019531 174.09375 142.128906 174.261719 141.257812 174.054688 C 141.339844 173.179688 141.777344 172.371094 142.480469 171.808594 C 143.1875 171.269531 144.078125 171.039062 144.949219 171.183594 L 142.6875 173.035156 L 145.179688 171.476562 C 145.035156 172.347656 144.535156 173.117188 143.789062 173.617188 Z M 143.769531 173.617188 " fill-opacity="1" fill-rule="evenodd"/><path fill="rgb(0%, 59.999084%, 79.998779%)" d="M 146.714844 166.820312 C 146.402344 167.652344 145.761719 168.316406 144.949219 168.648438 C 144.496094 167.902344 144.371094 166.984375 144.597656 166.132812 C 144.847656 165.28125 145.429688 164.574219 146.214844 164.160156 L 145.492188 167.007812 L 146.570312 164.285156 C 146.964844 165.074219 147.027344 165.988281 146.714844 166.820312 Z M 146.714844 166.820312 " fill-opacity="1" fill-rule="evenodd"/><path fill="rgb(0%, 59.999084%, 79.998779%)" d="M 165.058594 114.707031 C 165.078125 113.644531 164.644531 112.628906 163.875 111.898438 C 163.046875 112.542969 162.507812 113.519531 162.402344 114.582031 C 162.296875 115.640625 162.652344 116.679688 163.355469 117.472656 L 163.75 113.976562 L 163.792969 117.492188 C 164.582031 116.785156 165.039062 115.765625 165.039062 114.707031 Z M 165.058594 114.707031 " fill-opacity="1" fill-rule="evenodd"/><path fill="rgb(0%, 59.999084%, 79.998779%)" d="M 164.125 108.824219 C 164.519531 107.597656 164.375 106.246094 163.730469 105.125 C 162.527344 105.582031 161.550781 106.515625 161.074219 107.722656 C 160.597656 108.925781 160.617188 110.277344 161.179688 111.441406 L 162.878906 107.492188 L 161.675781 111.609375 C 162.835938 111.046875 163.730469 110.050781 164.125 108.800781 Z M 164.125 108.824219 " fill-opacity="1" fill-rule="evenodd"/><path fill="rgb(0%, 59.999084%, 79.998779%)" d="M 171.242188 105.914062 C 170.785156 105.082031 169.976562 104.480469 169.0625 104.25 C 168.691406 105.125 168.710938 106.121094 169.105469 106.992188 C 169.5 107.867188 170.246094 108.53125 171.136719 108.824219 L 169.894531 105.914062 L 171.492188 108.65625 C 171.78125 107.742188 171.699219 106.746094 171.222656 105.914062 Z M 171.242188 105.914062 " fill-opacity="1" fill-rule="evenodd"/><path fill="rgb(0%, 59.999084%, 79.998779%)" d="M 167.382812 109.21875 C 167.382812 108.15625 166.96875 107.140625 166.199219 106.410156 C 165.371094 107.054688 164.828125 108.035156 164.726562 109.09375 C 164.621094 110.152344 164.976562 111.191406 165.679688 111.984375 L 166.074219 108.492188 L 166.117188 112.003906 C 166.90625 111.296875 167.363281 110.277344 167.363281 109.21875 Z M 167.382812 109.21875 " fill-opacity="1" fill-rule="evenodd"/><path fill="rgb(0%, 59.999084%, 79.998779%)" d="M 168.585938 103.066406 C 168.605469 102.003906 168.171875 100.988281 167.402344 100.257812 C 166.574219 100.902344 166.035156 101.878906 165.929688 102.941406 C 165.824219 104 166.179688 105.039062 166.90625 105.828125 L 167.300781 102.335938 L 167.339844 105.851562 C 168.128906 105.144531 168.585938 104.125 168.585938 103.066406 Z M 168.585938 103.066406 " fill-opacity="1" fill-rule="evenodd"/><path fill="rgb(0%, 59.999084%, 79.998779%)" d="M 173.066406 101.921875 C 173.066406 100.863281 172.652344 99.84375 171.863281 99.117188 C 171.035156 99.761719 170.496094 100.738281 170.390625 101.796875 C 170.289062 102.855469 170.640625 103.898438 171.367188 104.6875 L 171.761719 101.195312 L 171.800781 104.707031 C 172.589844 104 173.046875 102.980469 173.046875 101.921875 Z M 173.066406 101.921875 " fill-opacity="1" fill-rule="evenodd"/><g clip-path="url(#id4)"><path fill="rgb(0%, 59.999084%, 79.998779%)" d="M 176.78125 99.09375 C 176.78125 98.035156 176.367188 97.015625 175.578125 96.289062 C 174.75 96.933594 174.210938 97.910156 174.105469 98.96875 C 174 100.03125 174.355469 101.070312 175.058594 101.859375 L 175.453125 98.367188 L 175.496094 101.878906 C 176.285156 101.171875 176.742188 100.15625 176.742188 99.09375 Z M 176.78125 99.09375 " fill-opacity="1" fill-rule="evenodd"/></g><path fill="rgb(0%, 59.999084%, 79.998779%)" d="M 190.207031 146.574219 C 189.128906 144.515625 188.960938 142.105469 189.730469 139.921875 C 192.011719 140.335938 194.003906 141.707031 195.230469 143.664062 C 196.472656 145.617188 196.828125 148.007812 196.226562 150.253906 L 191.972656 143.851562 L 195.375 150.730469 C 193.132812 150.128906 191.265625 148.609375 190.1875 146.574219 Z M 190.207031 146.574219 " fill-opacity="1" fill-rule="evenodd"/><path fill="rgb(0%, 59.999084%, 79.998779%)" d="M 193.339844 137.882812 C 192.675781 136.59375 192.574219 135.097656 193.050781 133.746094 C 194.460938 134.015625 195.707031 134.847656 196.472656 136.074219 C 197.242188 137.300781 197.46875 138.777344 197.097656 140.171875 L 194.460938 136.179688 L 196.578125 140.460938 C 195.1875 140.085938 194.027344 139.152344 193.339844 137.863281 Z M 193.339844 137.882812 " fill-opacity="1" fill-rule="evenodd"/><path fill="rgb(0%, 59.999084%, 79.998779%)" d="M 194.605469 131.585938 C 193.941406 130.316406 193.839844 128.800781 194.316406 127.449219 C 195.726562 127.71875 196.972656 128.550781 197.738281 129.777344 C 198.507812 131.003906 198.734375 132.480469 198.363281 133.871094 L 195.726562 129.878906 L 197.84375 134.164062 C 196.453125 133.789062 195.269531 132.851562 194.605469 131.566406 Z M 194.605469 131.585938 " fill-opacity="1" fill-rule="evenodd"/><path fill="rgb(0%, 59.999084%, 79.998779%)" d="M 193.902344 124.289062 C 192.550781 123.082031 191.765625 121.359375 191.742188 119.550781 C 193.527344 119.238281 195.355469 119.695312 196.804688 120.796875 C 198.238281 121.898438 199.152344 123.5625 199.339844 125.347656 L 194.480469 121.816406 L 198.859375 125.929688 C 197.054688 126.097656 195.269531 125.496094 193.921875 124.289062 Z M 193.902344 124.289062 " fill-opacity="1" fill-rule="evenodd"/><path fill="rgb(0%, 59.999084%, 79.998779%)" d="M 193.132812 117.429688 C 192.011719 117.035156 191.101562 116.203125 190.621094 115.121094 C 191.617188 114.476562 192.84375 114.269531 194.003906 114.5625 C 195.144531 114.851562 196.121094 115.621094 196.703125 116.660156 L 192.863281 115.765625 L 196.558594 117.117188 C 195.519531 117.679688 194.273438 117.78125 193.15625 117.410156 Z M 193.132812 117.429688 " fill-opacity="1" fill-rule="evenodd"/><g clip-path="url(#id5)"><path fill="rgb(0%, 59.999084%, 79.998779%)" d="M 190.914062 100.34375 C 190.621094 99.199219 190.808594 97.972656 191.453125 96.953125 C 192.53125 97.433594 193.382812 98.347656 193.777344 99.46875 C 194.171875 100.589844 194.066406 101.816406 193.507812 102.878906 L 192.136719 99.179688 L 193.03125 103.023438 C 191.992188 102.460938 191.222656 101.484375 190.914062 100.320312 Z M 190.914062 100.34375 " fill-opacity="1" fill-rule="evenodd"/></g><path fill="rgb(0%, 59.999084%, 79.998779%)" d="M 195.996094 103.9375 C 195.976562 102.628906 196.496094 101.359375 197.429688 100.445312 C 198.464844 101.234375 199.152344 102.441406 199.277344 103.730469 C 199.398438 105.039062 198.984375 106.328125 198.113281 107.328125 L 197.574219 103.003906 L 197.554688 107.347656 C 196.578125 106.472656 195.996094 105.226562 195.976562 103.917969 Z M 195.996094 103.9375 " fill-opacity="1" fill-rule="evenodd"/><path fill="rgb(0%, 59.999084%, 79.998779%)" d="M 199.460938 108.035156 C 199.855469 106.785156 200.726562 105.746094 201.910156 105.164062 C 202.65625 106.246094 202.90625 107.597656 202.636719 108.863281 C 202.347656 110.152344 201.539062 111.253906 200.417969 111.898438 L 201.269531 107.636719 L 199.898438 111.753906 C 199.234375 110.609375 199.089844 109.261719 199.460938 108.011719 Z M 199.460938 108.035156 " fill-opacity="1" fill-rule="evenodd"/><path fill="rgb(0%, 59.999084%, 79.998779%)" d="M 202.71875 111.527344 C 203.46875 110.175781 204.753906 109.175781 206.269531 108.800781 C 206.871094 110.238281 206.851562 111.859375 206.207031 113.273438 C 205.5625 114.683594 204.359375 115.765625 202.886719 116.265625 L 204.898438 111.527344 L 202.304688 115.972656 C 201.828125 114.5 201.972656 112.875 202.71875 111.527344 Z M 202.71875 111.527344 " fill-opacity="1" fill-rule="evenodd"/><path fill="rgb(0%, 59.999084%, 79.998779%)" d="M 205.085938 117.347656 C 205.832031 115.996094 207.121094 114.996094 208.632812 114.621094 C 209.234375 116.058594 209.214844 117.679688 208.570312 119.09375 C 207.929688 120.503906 206.726562 121.585938 205.25 122.085938 L 207.265625 117.347656 L 204.671875 121.792969 C 204.195312 120.320312 204.339844 118.695312 205.085938 117.347656 Z M 205.085938 117.347656 " fill-opacity="1" fill-rule="evenodd"/><path fill="rgb(0%, 59.999084%, 79.998779%)" d="M 206.433594 123.75 C 207.183594 122.398438 208.46875 121.398438 209.984375 121.023438 C 210.585938 122.460938 210.5625 124.082031 209.921875 125.496094 C 209.277344 126.90625 208.074219 127.988281 206.601562 128.488281 L 208.613281 123.75 L 206.019531 128.195312 C 205.542969 126.722656 205.6875 125.101562 206.433594 123.75 Z M 206.433594 123.75 " fill-opacity="1" fill-rule="evenodd"/><path fill="rgb(0%, 59.999084%, 79.998779%)" d="M 211.332031 121.066406 C 211.332031 120.089844 211.726562 119.15625 212.429688 118.488281 C 213.199219 119.09375 213.699219 119.984375 213.78125 120.964844 C 213.863281 121.941406 213.550781 122.894531 212.886719 123.625 L 212.515625 120.402344 L 212.472656 123.644531 C 211.746094 122.980469 211.332031 122.066406 211.332031 121.085938 Z M 211.332031 121.066406 " fill-opacity="1" fill-rule="evenodd"/><path fill="rgb(0%, 59.999084%, 79.998779%)" d="M 213.800781 117.617188 C 213.574219 116.660156 213.757812 115.664062 214.300781 114.851562 C 215.191406 115.265625 215.855469 116.015625 216.167969 116.949219 C 216.476562 117.886719 216.375 118.90625 215.898438 119.757812 L 214.816406 116.703125 L 215.503906 119.859375 C 214.652344 119.382812 214.03125 118.574219 213.800781 117.617188 Z M 213.800781 117.617188 " fill-opacity="1" fill-rule="evenodd"/><path fill="rgb(0%, 59.999084%, 79.998779%)" d="M 215.085938 113.75 C 214.570312 112.917969 214.402344 111.921875 214.652344 110.964844 C 215.628906 111.066406 216.5 111.566406 217.101562 112.355469 C 217.679688 113.148438 217.910156 114.125 217.742188 115.101562 L 215.730469 112.566406 L 217.390625 115.351562 C 216.4375 115.164062 215.585938 114.601562 215.066406 113.769531 Z M 215.085938 113.75 " fill-opacity="1" fill-rule="evenodd"/><path fill="rgb(0%, 59.999084%, 79.998779%)" d="M 215.960938 109.800781 C 215.480469 109.382812 215.191406 108.78125 215.171875 108.136719 C 215.792969 108.011719 216.457031 108.15625 216.957031 108.554688 C 217.472656 108.925781 217.804688 109.507812 217.867188 110.152344 L 216.144531 108.925781 L 217.703125 110.363281 C 217.058594 110.425781 216.4375 110.238281 215.960938 109.800781 Z M 215.960938 109.800781 " fill-opacity="1" fill-rule="evenodd"/><path fill="rgb(0%, 59.999084%, 79.998779%)" d="M 215.128906 106.328125 C 214.652344 105.914062 214.359375 105.308594 214.339844 104.664062 C 214.964844 104.542969 215.605469 104.707031 216.125 105.082031 C 216.644531 105.457031 216.976562 106.039062 217.039062 106.683594 L 215.316406 105.457031 L 216.871094 106.890625 C 216.230469 106.953125 215.605469 106.765625 215.128906 106.328125 Z M 215.128906 106.328125 " fill-opacity="1" fill-rule="evenodd"/><path fill="rgb(0%, 59.999084%, 79.998779%)" d="M 215.710938 103.605469 C 215.335938 103.085938 215.210938 102.441406 215.335938 101.796875 C 215.980469 101.839844 216.5625 102.128906 216.976562 102.609375 C 217.390625 103.105469 217.578125 103.730469 217.496094 104.375 L 216.105469 102.773438 L 217.289062 104.519531 C 216.644531 104.4375 216.082031 104.082031 215.710938 103.5625 Z M 215.710938 103.605469 " fill-opacity="1" fill-rule="evenodd"/><path fill="rgb(0%, 59.999084%, 79.998779%)" d="M 220.398438 105.183594 C 220.648438 104.601562 220.628906 103.9375 220.359375 103.355469 C 219.734375 103.523438 219.238281 103.960938 218.945312 104.519531 C 218.65625 105.082031 218.613281 105.746094 218.84375 106.347656 L 219.839844 104.480469 L 219.09375 106.453125 C 219.695312 106.226562 220.171875 105.765625 220.398438 105.164062 Z M 220.398438 105.183594 " fill-opacity="1" fill-rule="evenodd"/><path fill="rgb(0%, 59.999084%, 79.998779%)" d="M 222.058594 107.722656 C 222.308594 107.140625 222.289062 106.472656 222.019531 105.890625 C 221.394531 106.058594 220.898438 106.496094 220.605469 107.054688 C 220.316406 107.636719 220.273438 108.304688 220.503906 108.886719 L 221.5 107.015625 L 220.753906 108.988281 C 221.355469 108.761719 221.832031 108.304688 222.058594 107.699219 Z M 222.058594 107.722656 " fill-opacity="1" fill-rule="evenodd"/><path fill="rgb(0%, 59.999084%, 79.998779%)" d="M 223.285156 110.839844 C 223.574219 110.113281 223.554688 109.28125 223.222656 108.574219 C 222.476562 108.78125 221.832031 109.320312 221.480469 110.027344 C 221.125 110.734375 221.085938 111.566406 221.355469 112.292969 L 222.578125 109.988281 L 221.644531 112.441406 C 222.390625 112.171875 222.972656 111.589844 223.261719 110.859375 Z M 223.285156 110.839844 " fill-opacity="1" fill-rule="evenodd"/><path fill="rgb(0%, 59.999084%, 79.998779%)" d="M 223.59375 114.832031 C 224.136719 114.25 224.40625 113.480469 224.34375 112.691406 C 223.554688 112.628906 222.785156 112.898438 222.203125 113.4375 C 221.625 113.976562 221.292969 114.726562 221.292969 115.515625 L 223.242188 113.792969 L 221.519531 115.765625 C 222.308594 115.765625 223.054688 115.433594 223.59375 114.851562 Z M 223.59375 114.832031 " fill-opacity="1" fill-rule="evenodd"/><path fill="rgb(0%, 59.999084%, 79.998779%)" d="M 223.824219 117.867188 C 224.363281 117.285156 224.632812 116.515625 224.570312 115.726562 C 223.78125 115.664062 223.015625 115.933594 222.433594 116.472656 C 221.851562 117.011719 221.519531 117.761719 221.519531 118.550781 L 223.472656 116.828125 L 221.75 118.800781 C 222.535156 118.800781 223.285156 118.46875 223.824219 117.886719 Z M 223.824219 117.867188 " fill-opacity="1" fill-rule="evenodd"/><path fill="rgb(0%, 59.999084%, 79.998779%)" d="M 224.796875 120.484375 C 225.339844 119.902344 225.609375 119.132812 225.523438 118.34375 C 224.738281 118.28125 223.96875 118.550781 223.386719 119.09375 C 222.808594 119.632812 222.476562 120.382812 222.476562 121.171875 L 224.425781 119.425781 L 222.703125 121.398438 C 223.492188 121.398438 224.238281 121.066406 224.777344 120.484375 Z M 224.796875 120.484375 " fill-opacity="1" fill-rule="evenodd"/><path fill="rgb(0%, 59.999084%, 79.998779%)" d="M 227.910156 120.691406 C 228.347656 120.027344 228.492188 119.21875 228.304688 118.449219 C 227.515625 118.511719 226.789062 118.90625 226.3125 119.527344 C 225.835938 120.152344 225.628906 120.941406 225.753906 121.730469 L 227.414062 119.714844 L 226.023438 121.941406 C 226.789062 121.816406 227.496094 121.359375 227.933594 120.714844 Z M 227.910156 120.691406 " fill-opacity="1" fill-rule="evenodd"/><path fill="rgb(0%, 59.999084%, 79.998779%)" d="M 230.464844 122.042969 C 231.023438 121.710938 231.4375 121.148438 231.585938 120.527344 C 230.984375 120.277344 230.296875 120.296875 229.695312 120.589844 C 229.09375 120.878906 228.660156 121.398438 228.472656 122.023438 L 230.464844 121.128906 L 228.617188 122.273438 C 229.238281 122.460938 229.925781 122.398438 230.484375 122.066406 Z M 230.464844 122.042969 " fill-opacity="1" fill-rule="evenodd"/><path fill="rgb(0%, 59.999084%, 79.998779%)" d="M 233.015625 123.167969 C 233.578125 122.832031 233.992188 122.273438 234.136719 121.648438 C 233.515625 121.398438 232.851562 121.421875 232.25 121.710938 C 231.644531 122.003906 231.210938 122.523438 231.023438 123.144531 L 233.015625 122.25 L 231.167969 123.394531 C 231.792969 123.582031 232.476562 123.5 233.035156 123.1875 Z M 233.015625 123.167969 " fill-opacity="1" fill-rule="evenodd"/><path fill="rgb(0%, 59.999084%, 79.998779%)" d="M 232.269531 125.558594 C 232.890625 125.785156 233.578125 125.742188 234.15625 125.453125 C 233.949219 124.828125 233.492188 124.308594 232.914062 124.039062 C 232.308594 123.769531 231.625 123.75 231.023438 123.996094 L 232.972656 124.953125 L 230.921875 124.246094 C 231.167969 124.851562 231.667969 125.328125 232.269531 125.558594 Z M 232.269531 125.558594 " fill-opacity="1" fill-rule="evenodd"/><path fill="rgb(0%, 59.999084%, 79.998779%)" d="M 229.425781 126.035156 C 230.046875 126.265625 230.734375 126.222656 231.3125 125.929688 C 231.105469 125.308594 230.652344 124.789062 230.070312 124.519531 C 229.46875 124.246094 228.78125 124.226562 228.179688 124.476562 L 230.132812 125.433594 L 228.078125 124.726562 C 228.328125 125.328125 228.824219 125.804688 229.425781 126.035156 Z M 229.425781 126.035156 " fill-opacity="1" fill-rule="evenodd"/><path fill="rgb(0%, 59.999084%, 79.998779%)" d="M 225.773438 126.679688 C 226.457031 126.929688 227.183594 126.886719 227.828125 126.554688 C 227.601562 125.867188 227.101562 125.308594 226.457031 124.996094 C 225.816406 124.683594 225.046875 124.683594 224.382812 124.953125 L 226.519531 126.015625 L 224.28125 125.246094 C 224.550781 125.910156 225.089844 126.429688 225.773438 126.679688 Z M 225.773438 126.679688 " fill-opacity="1" fill-rule="evenodd"/><path fill="rgb(0%, 59.999084%, 79.998779%)" d="M 222.847656 127.863281 C 223.65625 128.15625 224.527344 128.113281 225.296875 127.71875 C 225.027344 126.90625 224.445312 126.242188 223.679688 125.890625 C 222.910156 125.535156 222.019531 125.515625 221.230469 125.828125 L 223.761719 127.074219 L 221.085938 126.160156 C 221.417969 126.949219 222.039062 127.574219 222.847656 127.863281 Z M 222.847656 127.863281 " fill-opacity="1" fill-rule="evenodd"/><path fill="rgb(0%, 59.999084%, 79.998779%)" d="M 220.152344 130.898438 C 221.3125 131.335938 222.621094 131.253906 223.742188 130.691406 C 223.367188 129.507812 222.496094 128.53125 221.355469 127.988281 C 220.214844 127.46875 218.925781 127.429688 217.765625 127.90625 L 221.480469 129.734375 L 217.558594 128.382812 C 218.035156 129.546875 218.96875 130.441406 220.152344 130.878906 Z M 220.152344 130.898438 " fill-opacity="1" fill-rule="evenodd"/><path fill="rgb(0%, 59.999084%, 79.998779%)" d="M 217.226562 133.707031 C 218.40625 134.140625 219.695312 134.058594 220.816406 133.496094 C 220.421875 132.3125 219.570312 131.335938 218.429688 130.796875 C 217.289062 130.277344 216 130.234375 214.839844 130.710938 L 218.554688 132.542969 L 214.632812 131.191406 C 215.109375 132.355469 216.042969 133.25 217.203125 133.683594 Z M 217.226562 133.707031 " fill-opacity="1" fill-rule="evenodd"/><path fill="rgb(0%, 59.999084%, 79.998779%)" d="M 215.253906 137.175781 C 216.5 137.113281 217.660156 136.53125 218.46875 135.578125 C 217.640625 134.640625 216.476562 134.078125 215.234375 134.039062 C 213.988281 133.996094 212.785156 134.476562 211.890625 135.367188 L 216.019531 135.597656 L 211.890625 135.886719 C 212.785156 136.761719 214.007812 137.21875 215.253906 137.15625 Z M 215.253906 137.175781 " fill-opacity="1" fill-rule="evenodd"/><path fill="rgb(0%, 59.999084%, 79.998779%)" d="M 211.621094 141.667969 C 212.867188 141.605469 214.03125 141.023438 214.839844 140.066406 C 214.03125 139.132812 212.847656 138.570312 211.601562 138.527344 C 210.355469 138.488281 209.152344 138.964844 208.261719 139.859375 L 212.390625 140.085938 L 208.261719 140.378906 C 209.152344 141.25 210.355469 141.730469 211.621094 141.667969 Z M 211.621094 141.667969 " fill-opacity="1" fill-rule="evenodd"/><path fill="rgb(0%, 59.999084%, 79.998779%)" d="M 210.441406 146.550781 C 211.828125 146.199219 212.992188 145.261719 213.65625 143.996094 C 212.515625 143.121094 211.0625 142.789062 209.652344 143.039062 C 208.238281 143.289062 206.996094 144.121094 206.226562 145.324219 L 210.917969 144.597656 L 206.371094 145.90625 C 207.574219 146.675781 209.050781 146.90625 210.441406 146.550781 Z M 210.441406 146.550781 " fill-opacity="1" fill-rule="evenodd"/><path fill="rgb(0%, 59.999084%, 79.998779%)" d="M 219.050781 147.425781 C 220.359375 145.886719 220.960938 143.890625 220.710938 141.894531 C 218.699219 141.8125 216.746094 142.582031 215.335938 144.015625 C 213.925781 145.449219 213.15625 147.382812 213.242188 149.398438 L 218.054688 144.785156 L 213.863281 149.960938 C 215.875 149.878906 217.742188 148.964844 219.050781 147.425781 Z M 219.050781 147.425781 " fill-opacity="1" fill-rule="evenodd"/><path fill="rgb(0%, 59.999084%, 79.998779%)" d="M 224.652344 148.445312 C 225.609375 147.300781 226.066406 145.824219 225.898438 144.328125 C 224.40625 144.265625 222.953125 144.847656 221.914062 145.90625 C 220.855469 146.96875 220.296875 148.421875 220.359375 149.917969 L 223.925781 146.488281 L 220.816406 150.335938 C 222.308594 150.273438 223.699219 149.585938 224.675781 148.445312 Z M 224.652344 148.445312 " fill-opacity="1" fill-rule="evenodd"/><path fill="rgb(0%, 59.999084%, 79.998779%)" d="M 231.191406 147.464844 C 231.832031 146.117188 231.917969 144.554688 231.375 143.183594 C 229.925781 143.496094 228.660156 144.410156 227.890625 145.699219 C 227.144531 146.988281 226.957031 148.527344 227.371094 149.960938 L 229.988281 145.761719 L 227.933594 150.273438 C 229.363281 149.835938 230.546875 148.839844 231.191406 147.488281 Z M 231.191406 147.464844 " fill-opacity="1" fill-rule="evenodd"/><path fill="rgb(0%, 59.999084%, 79.998779%)" d="M 236.605469 143.476562 C 236.667969 141.980469 236.109375 140.523438 235.050781 139.484375 C 233.847656 140.359375 233.058594 141.707031 232.871094 143.183594 C 232.683594 144.660156 233.140625 146.15625 234.117188 147.300781 L 234.820312 142.394531 L 234.738281 147.34375 C 235.878906 146.363281 236.542969 144.972656 236.605469 143.476562 Z M 236.605469 143.476562 " fill-opacity="1" fill-rule="evenodd"/><path fill="rgb(0%, 59.999084%, 79.998779%)" d="M 239.65625 140.730469 C 239.699219 139.859375 239.367188 139.007812 238.742188 138.382812 C 238.039062 138.902344 237.582031 139.691406 237.476562 140.542969 C 237.375 141.417969 237.644531 142.289062 238.203125 142.957031 L 238.617188 140.085938 L 238.578125 142.996094 C 239.242188 142.4375 239.636719 141.605469 239.675781 140.730469 Z M 239.65625 140.730469 " fill-opacity="1" fill-rule="evenodd"/><path fill="rgb(0%, 59.999084%, 79.998779%)" d="M 242.726562 137.074219 C 242.769531 136.199219 242.4375 135.347656 241.8125 134.722656 C 241.109375 135.242188 240.652344 136.035156 240.546875 136.90625 C 240.445312 137.78125 240.714844 138.652344 241.273438 139.316406 L 241.691406 136.449219 L 241.648438 139.359375 C 242.3125 138.796875 242.707031 137.96875 242.746094 137.09375 Z M 242.726562 137.074219 " fill-opacity="1" fill-rule="evenodd"/><path fill="rgb(0%, 59.999084%, 79.998779%)" d="M 245.28125 134.203125 C 245.320312 133.332031 244.988281 132.480469 244.367188 131.855469 C 243.660156 132.375 243.203125 133.164062 243.101562 134.039062 C 242.996094 134.910156 243.265625 135.785156 243.828125 136.449219 L 244.242188 133.582031 L 244.199219 136.492188 C 244.863281 135.910156 245.257812 135.097656 245.300781 134.226562 Z M 245.28125 134.203125 " fill-opacity="1" fill-rule="evenodd"/><g clip-path="url(#id6)"><path fill="rgb(0%, 59.999084%, 79.998779%)" d="M 245.757812 139.546875 C 246.523438 139.132812 247.105469 138.425781 247.332031 137.570312 C 246.523438 137.21875 245.632812 137.21875 244.824219 137.550781 C 244.015625 137.90625 243.390625 138.570312 243.101562 139.378906 L 245.796875 138.300781 L 243.265625 139.714844 C 244.097656 140.003906 245.007812 139.941406 245.777344 139.527344 Z M 245.757812 139.546875 " fill-opacity="1" fill-rule="evenodd"/></g><path fill="rgb(0%, 59.999084%, 79.998779%)" d="M 244.761719 143.183594 C 245.527344 142.769531 246.109375 142.0625 246.335938 141.210938 C 245.527344 140.855469 244.617188 140.855469 243.828125 141.1875 C 243.019531 141.542969 242.394531 142.207031 242.105469 143.019531 L 244.800781 141.9375 L 242.269531 143.351562 C 243.101562 143.640625 244.015625 143.578125 244.78125 143.164062 Z M 244.761719 143.183594 " fill-opacity="1" fill-rule="evenodd"/><path fill="rgb(0%, 59.999084%, 79.998779%)" d="M 242.957031 146.550781 C 243.910156 146.386719 244.738281 145.824219 245.238281 145.015625 C 244.511719 144.371094 243.558594 144.078125 242.601562 144.160156 C 241.648438 144.265625 240.777344 144.742188 240.195312 145.511719 L 243.371094 145.261719 L 240.257812 145.90625 C 241.027344 146.488281 242 146.71875 242.957031 146.550781 Z M 242.957031 146.550781 " fill-opacity="1" fill-rule="evenodd"/><path fill="rgb(0%, 59.999084%, 79.998779%)" d="M 240.484375 149.796875 C 241.441406 149.898438 242.394531 149.609375 243.121094 148.984375 C 242.625 148.171875 241.792969 147.589844 240.859375 147.40625 C 239.90625 147.21875 238.929688 147.445312 238.160156 148.007812 L 241.273438 148.691406 L 238.101562 148.402344 C 238.660156 149.171875 239.53125 149.691406 240.484375 149.796875 Z M 240.484375 149.796875 " fill-opacity="1" fill-rule="evenodd"/><path fill="rgb(0%, 59.999084%, 79.998779%)" d="M 238.679688 152.664062 C 239.636719 152.765625 240.589844 152.476562 241.316406 151.851562 C 240.816406 151.042969 239.988281 150.460938 239.054688 150.273438 C 238.121094 150.085938 237.125 150.316406 236.355469 150.875 L 239.46875 151.5625 L 236.292969 151.269531 C 236.855469 152.039062 237.726562 152.558594 238.679688 152.664062 Z M 238.679688 152.664062 " fill-opacity="1" fill-rule="evenodd"/><path fill="rgb(0%, 59.999084%, 79.998779%)" d="M 237.414062 155.40625 C 238.371094 155.511719 239.324219 155.21875 240.050781 154.597656 C 239.550781 153.785156 238.722656 153.203125 237.789062 153.015625 C 236.855469 152.828125 235.859375 153.058594 235.089844 153.621094 L 238.203125 154.304688 L 235.027344 154.015625 C 235.589844 154.785156 236.460938 155.304688 237.414062 155.40625 Z M 237.414062 155.40625 " fill-opacity="1" fill-rule="evenodd"/><path fill="rgb(0%, 59.999084%, 79.998779%)" d="M 240.09375 159.378906 C 241.046875 159.480469 242 159.191406 242.726562 158.566406 C 242.230469 157.757812 241.398438 157.175781 240.464844 156.988281 C 239.53125 156.800781 238.535156 157.007812 237.769531 157.589844 L 240.878906 158.277344 L 237.707031 157.984375 C 238.265625 158.753906 239.136719 159.273438 240.09375 159.378906 Z M 240.09375 159.378906 " fill-opacity="1" fill-rule="evenodd"/><path fill="rgb(0%, 59.999084%, 79.998779%)" d="M 242.394531 163.160156 C 243.265625 163.265625 244.160156 162.996094 244.824219 162.414062 C 244.367188 161.664062 243.597656 161.125 242.726562 160.957031 C 241.855469 160.792969 240.964844 160.976562 240.238281 161.5 L 243.101562 162.140625 L 240.175781 161.871094 C 240.695312 162.578125 241.503906 163.058594 242.375 163.160156 Z M 242.394531 163.160156 " fill-opacity="1" fill-rule="evenodd"/><path fill="rgb(0%, 59.999084%, 79.998779%)" d="M 244.386719 166.527344 C 245.257812 166.632812 246.152344 166.363281 246.816406 165.78125 C 246.359375 165.03125 245.589844 164.511719 244.71875 164.324219 C 243.847656 164.160156 242.957031 164.347656 242.230469 164.867188 L 245.09375 165.488281 L 242.167969 165.21875 C 242.6875 165.925781 243.496094 166.402344 244.367188 166.507812 Z M 244.386719 166.527344 " fill-opacity="1" fill-rule="evenodd"/><g clip-path="url(#id7)"><path fill="rgb(0%, 59.999084%, 79.998779%)" d="M 244.988281 170.394531 C 245.777344 170.789062 246.691406 170.832031 247.519531 170.519531 C 247.332031 169.648438 246.792969 168.898438 246.046875 168.460938 C 245.28125 168.003906 244.367188 167.902344 243.535156 168.148438 L 246.027344 169.710938 L 243.371094 168.484375 C 243.621094 169.335938 244.222656 170.042969 245.011719 170.4375 Z M 244.988281 170.394531 " fill-opacity="1" fill-rule="evenodd"/></g><path fill="rgb(0%, 59.999084%, 79.998779%)" d="M 242.5 172.246094 C 242.894531 173.035156 243.597656 173.636719 244.429688 173.886719 C 244.800781 173.097656 244.84375 172.160156 244.511719 171.351562 C 244.179688 170.519531 243.535156 169.875 242.707031 169.5625 L 243.722656 172.308594 L 242.375 169.710938 C 242.0625 170.539062 242.105469 171.457031 242.476562 172.246094 Z M 242.5 172.246094 " fill-opacity="1" fill-rule="evenodd"/><path fill="rgb(0%, 59.999084%, 79.998779%)" d="M 239.15625 168.816406 C 239.011719 169.6875 239.242188 170.582031 239.78125 171.289062 C 240.546875 170.851562 241.109375 170.125 241.316406 169.273438 C 241.523438 168.421875 241.378906 167.503906 240.878906 166.757812 L 240.113281 169.585938 L 240.527344 166.675781 C 239.800781 167.171875 239.28125 167.941406 239.136719 168.816406 Z M 239.15625 168.816406 " fill-opacity="1" fill-rule="evenodd"/><path fill="rgb(0%, 59.999084%, 79.998779%)" d="M 236.875 166.238281 C 236.730469 167.109375 236.957031 168.003906 237.5 168.710938 C 238.265625 168.273438 238.824219 167.546875 239.035156 166.695312 C 239.242188 165.84375 239.097656 164.929688 238.597656 164.179688 L 237.832031 167.007812 L 238.246094 164.097656 C 237.519531 164.574219 237 165.363281 236.875 166.238281 Z M 236.875 166.238281 " fill-opacity="1" fill-rule="evenodd"/><path fill="rgb(0%, 59.999084%, 79.998779%)" d="M 234.261719 163.367188 C 234.117188 164.242188 234.34375 165.136719 234.882812 165.84375 C 235.652344 165.40625 236.210938 164.679688 236.417969 163.828125 C 236.625 162.972656 236.480469 162.058594 235.984375 161.3125 L 235.214844 164.136719 L 235.609375 161.226562 C 234.882812 161.707031 234.363281 162.496094 234.242188 163.367188 Z M 234.261719 163.367188 " fill-opacity="1" fill-rule="evenodd"/><path fill="rgb(0%, 59.999084%, 79.998779%)" d="M 231.191406 161 C 231.042969 161.871094 231.273438 162.765625 231.8125 163.472656 C 232.582031 163.035156 233.140625 162.308594 233.347656 161.457031 C 233.554688 160.605469 233.410156 159.691406 232.914062 158.941406 L 232.144531 161.769531 L 232.558594 158.859375 C 231.8125 159.355469 231.316406 160.125 231.191406 161 Z M 231.191406 161 " fill-opacity="1" fill-rule="evenodd"/><path fill="rgb(0%, 59.999084%, 79.998779%)" d="M 227.996094 162.082031 C 228.304688 162.910156 228.949219 163.578125 229.757812 163.910156 C 230.214844 163.160156 230.339844 162.246094 230.109375 161.394531 C 229.863281 160.542969 229.28125 159.835938 228.492188 159.417969 L 229.21875 162.265625 L 228.140625 159.542969 C 227.746094 160.335938 227.683594 161.25 227.996094 162.082031 Z M 227.996094 162.082031 " fill-opacity="1" fill-rule="evenodd"/><path fill="rgb(0%, 59.999084%, 79.998779%)" d="M 224.527344 159.523438 C 224.839844 160.355469 225.484375 161.019531 226.292969 161.351562 C 226.75 160.605469 226.875 159.691406 226.644531 158.835938 C 226.398438 157.984375 225.816406 157.277344 225.027344 156.863281 L 225.753906 159.710938 L 224.675781 156.988281 C 224.28125 157.777344 224.21875 158.691406 224.527344 159.523438 Z M 224.527344 159.523438 " fill-opacity="1" fill-rule="evenodd"/><path fill="rgb(0%, 59.999084%, 79.998779%)" d="M 220.855469 158.027344 C 221.457031 158.671875 222.289062 159.066406 223.179688 159.066406 C 223.324219 158.191406 223.097656 157.300781 222.558594 156.59375 C 222.019531 155.886719 221.207031 155.449219 220.316406 155.367188 L 222.058594 157.734375 L 220.046875 155.617188 C 219.964844 156.488281 220.273438 157.382812 220.855469 158.027344 Z M 220.855469 158.027344 " fill-opacity="1" fill-rule="evenodd"/><path fill="rgb(0%, 59.999084%, 79.998779%)" d="M 216.851562 157.734375 C 217.453125 158.378906 218.28125 158.773438 219.175781 158.773438 C 219.320312 157.902344 219.09375 157.007812 218.554688 156.300781 C 218.011719 155.59375 217.203125 155.15625 216.332031 155.074219 L 218.074219 157.445312 L 216.0625 155.324219 C 215.980469 156.199219 216.292969 157.070312 216.871094 157.734375 Z M 216.851562 157.734375 " fill-opacity="1" fill-rule="evenodd"/><path fill="rgb(0%, 59.999084%, 79.998779%)" d="M 223.117188 163.453125 C 223.925781 163.785156 224.859375 163.785156 225.648438 163.410156 C 225.421875 162.558594 224.839844 161.832031 224.050781 161.4375 C 223.261719 161.019531 222.351562 160.976562 221.519531 161.269531 L 224.09375 162.683594 L 221.375 161.601562 C 221.6875 162.433594 222.308594 163.097656 223.117188 163.453125 Z M 223.117188 163.453125 " fill-opacity="1" fill-rule="evenodd"/><path fill="rgb(0%, 59.999084%, 79.998779%)" d="M 224.859375 166.984375 C 225.671875 167.320312 226.605469 167.320312 227.414062 166.945312 C 227.183594 166.09375 226.605469 165.363281 225.816406 164.96875 C 225.027344 164.554688 224.113281 164.492188 223.285156 164.804688 L 225.855469 166.21875 L 223.140625 165.136719 C 223.449219 165.96875 224.074219 166.632812 224.882812 166.984375 Z M 224.859375 166.984375 " fill-opacity="1" fill-rule="evenodd"/><path fill="rgb(0%, 59.999084%, 79.998779%)" d="M 226.667969 171.082031 C 227.476562 171.433594 228.410156 171.414062 229.199219 171.039062 C 228.96875 170.1875 228.386719 169.480469 227.601562 169.066406 C 226.8125 168.648438 225.898438 168.605469 225.070312 168.898438 L 227.640625 170.3125 L 224.921875 169.230469 C 225.234375 170.0625 225.855469 170.726562 226.667969 171.082031 Z M 226.667969 171.082031 " fill-opacity="1" fill-rule="evenodd"/><path fill="rgb(0%, 59.999084%, 79.998779%)" d="M 227.226562 174.988281 C 228.035156 175.34375 228.96875 175.320312 229.757812 174.949219 C 229.53125 174.09375 228.949219 173.386719 228.160156 172.972656 C 227.371094 172.558594 226.457031 172.515625 225.628906 172.804688 L 228.203125 174.21875 L 225.484375 173.140625 C 225.792969 173.96875 226.417969 174.636719 227.226562 174.988281 Z M 227.226562 174.988281 " fill-opacity="1" fill-rule="evenodd"/><path fill="rgb(0%, 59.999084%, 79.998779%)" d="M 226.355469 179.3125 C 226.789062 180.082031 227.515625 180.644531 228.367188 180.851562 C 228.71875 180.039062 228.699219 179.105469 228.328125 178.316406 C 227.953125 177.503906 227.289062 176.878906 226.4375 176.609375 L 227.578125 179.3125 L 226.105469 176.777344 C 225.835938 177.609375 225.917969 178.542969 226.335938 179.3125 Z M 226.355469 179.3125 " fill-opacity="1" fill-rule="evenodd"/><path fill="rgb(0%, 59.999084%, 79.998779%)" d="M 226.3125 140.359375 C 227.394531 139.089844 227.890625 137.425781 227.703125 135.761719 C 226.042969 135.703125 224.425781 136.34375 223.242188 137.53125 C 222.058594 138.714844 221.4375 140.335938 221.5 142 L 225.484375 138.175781 L 221.996094 142.476562 C 223.65625 142.394531 225.234375 141.644531 226.3125 140.359375 Z M 226.3125 140.359375 " fill-opacity="1" fill-rule="evenodd"/><path fill="rgb(0%, 59.999084%, 79.998779%)" d="M 231.335938 139.609375 C 231.769531 138.570312 231.75 137.40625 231.292969 136.386719 C 230.214844 136.679688 229.300781 137.425781 228.804688 138.425781 C 228.285156 139.421875 228.222656 140.585938 228.597656 141.644531 L 230.378906 138.382812 L 229.03125 141.832031 C 230.089844 141.460938 230.921875 140.648438 231.355469 139.609375 Z M 231.335938 139.609375 " fill-opacity="1" fill-rule="evenodd"/><path fill="rgb(0%, 59.999084%, 79.998779%)" d="M 236.398438 136.097656 C 236.835938 135.058594 236.8125 133.894531 236.355469 132.875 C 235.277344 133.164062 234.363281 133.914062 233.867188 134.910156 C 233.347656 135.910156 233.285156 137.074219 233.660156 138.132812 L 235.445312 134.871094 L 234.09375 138.320312 C 235.152344 137.945312 235.984375 137.136719 236.417969 136.097656 Z M 236.398438 136.097656 " fill-opacity="1" fill-rule="evenodd"/><path fill="rgb(0%, 59.999084%, 79.998779%)" d="M 240.964844 132.625 C 241.027344 131.503906 240.632812 130.402344 239.863281 129.589844 C 238.929688 130.234375 238.328125 131.210938 238.160156 132.332031 C 237.996094 133.433594 238.308594 134.578125 239.011719 135.453125 L 239.636719 131.792969 L 239.46875 135.515625 C 240.339844 134.808594 240.878906 133.769531 240.941406 132.644531 Z M 240.964844 132.625 " fill-opacity="1" fill-rule="evenodd"/><path fill="rgb(0%, 59.999084%, 79.998779%)" d="M 230.402344 128.40625 C 231.398438 128.902344 232.164062 129.796875 232.476562 130.878906 C 231.460938 131.355469 230.296875 131.398438 229.261719 130.984375 C 228.222656 130.566406 227.394531 129.734375 227 128.695312 L 230.484375 129.984375 L 227.207031 128.257812 C 228.242188 127.863281 229.425781 127.90625 230.421875 128.40625 Z M 230.402344 128.40625 " fill-opacity="1" fill-rule="evenodd"/><path fill="rgb(0%, 59.999084%, 79.998779%)" d="M 233.847656 126.742188 C 234.550781 127.09375 235.070312 127.71875 235.296875 128.445312 C 234.59375 128.777344 233.785156 128.800781 233.058594 128.53125 C 232.332031 128.238281 231.769531 127.65625 231.480469 126.929688 L 233.910156 127.824219 L 231.625 126.617188 C 232.351562 126.347656 233.160156 126.367188 233.867188 126.722656 Z M 233.847656 126.742188 " fill-opacity="1" fill-rule="evenodd"/><path fill="rgb(0%, 59.999084%, 79.998779%)" d="M 227.394531 131.273438 C 228.097656 131.625 228.617188 132.25 228.824219 133 C 228.117188 133.332031 227.308594 133.351562 226.582031 133.082031 C 225.855469 132.789062 225.296875 132.207031 225.007812 131.480469 L 227.433594 132.375 L 225.152344 131.167969 C 225.878906 130.898438 226.6875 130.921875 227.394531 131.273438 Z M 227.394531 131.273438 " fill-opacity="1" fill-rule="evenodd"/><path fill="rgb(0%, 59.999084%, 79.998779%)" d="M 224.195312 132.9375 C 224.902344 133.289062 225.421875 133.894531 225.628906 134.640625 C 224.921875 134.972656 224.113281 134.996094 223.386719 134.722656 C 222.660156 134.433594 222.101562 133.851562 221.8125 133.125 L 224.238281 134.015625 L 221.957031 132.8125 C 222.683594 132.542969 223.492188 132.5625 224.195312 132.914062 Z M 224.195312 132.9375 " fill-opacity="1" fill-rule="evenodd"/><path fill="rgb(0%, 59.999084%, 79.998779%)" d="M 221.457031 134.933594 C 222.226562 134.972656 222.972656 135.328125 223.472656 135.929688 C 222.953125 136.511719 222.226562 136.867188 221.457031 136.90625 C 220.691406 136.925781 219.921875 136.636719 219.382812 136.074219 L 221.957031 135.929688 L 219.382812 135.742188 C 219.941406 135.203125 220.691406 134.910156 221.480469 134.933594 Z M 221.457031 134.933594 " fill-opacity="1" fill-rule="evenodd"/><path fill="rgb(0%, 59.999084%, 79.998779%)" d="M 217.496094 138.113281 C 218.222656 137.820312 219.03125 137.863281 219.734375 138.195312 C 219.507812 138.945312 218.988281 139.566406 218.28125 139.898438 C 217.578125 140.234375 216.769531 140.273438 216.042969 139.984375 L 218.34375 138.796875 L 215.917969 139.691406 C 216.207031 138.964844 216.769531 138.382812 217.496094 138.113281 Z M 217.496094 138.113281 " fill-opacity="1" fill-rule="evenodd"/><path fill="rgb(0%, 59.999084%, 79.998779%)" d="M 231.460938 167.234375 C 231.460938 168.128906 231.8125 168.960938 232.457031 169.5625 C 233.160156 169.023438 233.597656 168.210938 233.660156 167.320312 C 233.742188 166.425781 233.429688 165.550781 232.851562 164.90625 L 232.539062 167.816406 L 232.496094 164.886719 C 231.855469 165.488281 231.480469 166.320312 231.460938 167.214844 Z M 231.460938 167.234375 " fill-opacity="1" fill-rule="evenodd"/><path fill="rgb(0%, 59.999084%, 79.998779%)" d="M 234.40625 169.605469 C 234.40625 170.5 234.757812 171.332031 235.402344 171.933594 C 236.109375 171.394531 236.542969 170.582031 236.605469 169.6875 C 236.6875 168.792969 236.378906 167.921875 235.796875 167.277344 L 235.484375 170.1875 L 235.445312 167.257812 C 234.800781 167.859375 234.425781 168.691406 234.40625 169.585938 Z M 234.40625 169.605469 " fill-opacity="1" fill-rule="evenodd"/><path fill="rgb(0%, 59.999084%, 79.998779%)" d="M 231.273438 173.617188 C 232.019531 174.09375 232.914062 174.261719 233.785156 174.054688 C 233.699219 173.179688 233.265625 172.371094 232.582031 171.808594 C 231.875 171.269531 230.984375 171.039062 230.109375 171.183594 L 232.371094 173.035156 L 229.882812 171.476562 C 230.027344 172.347656 230.527344 173.117188 231.273438 173.617188 Z M 231.273438 173.617188 " fill-opacity="1" fill-rule="evenodd"/><path fill="rgb(0%, 59.999084%, 79.998779%)" d="M 228.328125 166.820312 C 228.636719 167.652344 229.28125 168.316406 230.089844 168.648438 C 230.546875 167.902344 230.671875 166.984375 230.441406 166.132812 C 230.195312 165.28125 229.613281 164.574219 228.824219 164.160156 L 229.550781 167.007812 L 228.472656 164.285156 C 228.078125 165.074219 228.015625 165.988281 228.328125 166.820312 Z M 228.328125 166.820312 " fill-opacity="1" fill-rule="evenodd"/><path fill="rgb(0%, 59.999084%, 79.998779%)" d="M 209.984375 114.707031 C 209.960938 113.644531 210.398438 112.628906 211.164062 111.898438 C 211.996094 112.542969 212.535156 113.519531 212.640625 114.582031 C 212.742188 115.640625 212.390625 116.679688 211.664062 117.472656 L 211.269531 113.976562 L 211.226562 117.492188 C 210.441406 116.785156 209.984375 115.765625 209.984375 114.707031 Z M 209.984375 114.707031 " fill-opacity="1" fill-rule="evenodd"/><path fill="rgb(0%, 59.999084%, 79.998779%)" d="M 210.917969 108.824219 C 210.523438 107.597656 210.667969 106.246094 211.3125 105.125 C 212.515625 105.582031 213.488281 106.515625 213.96875 107.722656 C 214.445312 108.925781 214.421875 110.277344 213.863281 111.441406 L 212.160156 107.492188 L 213.367188 111.609375 C 212.203125 111.046875 211.3125 110.050781 210.917969 108.800781 Z M 210.917969 108.824219 " fill-opacity="1" fill-rule="evenodd"/><path fill="rgb(0%, 59.999084%, 79.998779%)" d="M 203.800781 105.914062 C 204.253906 105.082031 205.042969 104.480469 205.976562 104.25 C 206.351562 105.125 206.332031 106.121094 205.9375 106.992188 C 205.542969 107.867188 204.796875 108.53125 203.902344 108.824219 L 205.148438 105.914062 L 203.550781 108.65625 C 203.261719 107.742188 203.34375 106.746094 203.820312 105.914062 Z M 203.800781 105.914062 " fill-opacity="1" fill-rule="evenodd"/><path fill="rgb(0%, 59.999084%, 79.998779%)" d="M 207.660156 109.21875 C 207.636719 108.15625 208.074219 107.140625 208.839844 106.410156 C 209.671875 107.054688 210.210938 108.035156 210.316406 109.09375 C 210.417969 110.152344 210.066406 111.191406 209.339844 111.984375 L 208.945312 108.492188 L 208.902344 112.003906 C 208.117188 111.296875 207.660156 110.277344 207.660156 109.21875 Z M 207.660156 109.21875 " fill-opacity="1" fill-rule="evenodd"/><path fill="rgb(0%, 59.999084%, 79.998779%)" d="M 206.433594 103.066406 C 206.433594 102.003906 206.851562 100.988281 207.617188 100.257812 C 208.449219 100.902344 208.988281 101.878906 209.089844 102.941406 C 209.195312 104 208.839844 105.039062 208.136719 105.828125 L 207.742188 102.335938 L 207.699219 105.851562 C 206.910156 105.144531 206.457031 104.125 206.457031 103.066406 Z M 206.433594 103.066406 " fill-opacity="1" fill-rule="evenodd"/><path fill="rgb(0%, 59.999084%, 79.998779%)" d="M 201.972656 101.921875 C 201.972656 100.863281 202.386719 99.84375 203.15625 99.117188 C 203.984375 99.761719 204.527344 100.738281 204.628906 101.796875 C 204.734375 102.855469 204.378906 103.898438 203.652344 104.6875 L 203.261719 101.195312 L 203.21875 104.707031 C 202.429688 104 201.972656 102.980469 201.972656 101.921875 Z M 201.972656 101.921875 " fill-opacity="1" fill-rule="evenodd"/><g clip-path="url(#id8)"><path fill="rgb(0%, 59.999084%, 79.998779%)" d="M 198.257812 99.09375 C 198.257812 98.035156 198.675781 97.015625 199.460938 96.289062 C 200.292969 96.933594 200.832031 97.910156 200.9375 98.96875 C 201.019531 100.03125 200.6875 101.070312 199.960938 101.859375 L 199.566406 98.367188 L 199.523438 101.878906 C 198.734375 101.171875 198.28125 100.15625 198.28125 99.09375 Z M 198.257812 99.09375 " fill-opacity="1" fill-rule="evenodd"/></g><path fill="rgb(0%, 59.999084%, 79.998779%)" d="M 184.042969 111.878906 C 185.164062 111.503906 186.078125 110.652344 186.554688 109.570312 C 185.558594 108.925781 184.335938 108.71875 183.171875 109.011719 C 182.03125 109.300781 181.035156 110.070312 180.476562 111.109375 L 184.316406 110.214844 L 180.621094 111.566406 C 181.660156 112.128906 182.902344 112.230469 184.023438 111.859375 Z M 184.042969 111.878906 " fill-opacity="1" fill-rule="evenodd"/><path fill="rgb(0%, 59.999084%, 79.998779%)" d="M 191.347656 111.734375 C 190.226562 111.339844 189.316406 110.507812 188.839844 109.425781 C 189.835938 108.78125 191.058594 108.574219 192.21875 108.863281 C 193.363281 109.15625 194.359375 109.925781 194.917969 110.964844 L 191.078125 110.070312 L 194.773438 111.421875 C 193.734375 111.984375 192.492188 112.085938 191.371094 111.710938 Z M 191.347656 111.734375 " fill-opacity="1" fill-rule="evenodd"/><path fill="rgb(0%, 59.999084%, 79.998779%)" d="M 185 131.023438 C 185.082031 129.214844 185.890625 127.53125 187.261719 126.347656 C 188.628906 127.511719 189.460938 129.214844 189.523438 131.023438 C 189.585938 132.832031 188.921875 134.578125 187.632812 135.867188 L 187.261719 129.902344 L 186.886719 135.867188 C 185.621094 134.578125 184.9375 132.832031 185 131.023438 Z M 185 131.023438 " fill-opacity="1" fill-rule="evenodd"/><path fill="rgb(0%, 59.999084%, 79.998779%)" d="M 185.683594 119.050781 C 185.746094 117.59375 186.410156 116.222656 187.511719 115.289062 C 188.609375 116.246094 189.273438 117.59375 189.335938 119.050781 C 189.398438 120.503906 188.839844 121.917969 187.820312 122.957031 L 187.511719 118.136719 L 187.199219 122.957031 C 186.160156 121.917969 185.621094 120.503906 185.683594 119.050781 Z M 185.683594 119.050781 " fill-opacity="1" fill-rule="evenodd"/><g clip-path="url(#id9)"><path fill="rgb(0%, 59.999084%, 79.998779%)" d="M 182.425781 206.980469 C 184.023438 196.128906 183.734375 185.070312 181.511719 174.304688 C 179.707031 166.675781 172.671875 161.476562 164.871094 161.976562 C 157.070312 162.476562 150.761719 168.566406 149.953125 176.359375 C 149.703125 171.457031 151.527344 166.675781 154.953125 163.160156 C 158.398438 159.648438 163.128906 157.757812 168.027344 157.921875 C 161.34375 152.496094 151.695312 152.828125 145.386719 158.691406 C 145.097656 157.757812 145.054688 156.757812 145.261719 155.800781 C 139.535156 158.421875 134.949219 163.015625 132.355469 168.730469 C 134.390625 162.414062 138.496094 156.945312 143.996094 153.246094 C 137.980469 149.878906 133.578125 144.222656 131.796875 137.550781 C 134.742188 146.636719 143.683594 152.371094 153.148438 151.25 C 160.160156 150.4375 167.238281 151.894531 173.335938 155.40625 C 172.113281 146.40625 168.480469 138.238281 162.464844 130.878906 C 157.796875 126.015625 151.300781 123.375 144.578125 123.582031 C 148.1875 122.042969 152.253906 121.917969 155.949219 123.269531 C 153.5 117.386719 153.976562 110.695312 157.234375 105.207031 C 154.207031 112.792969 156.964844 121.460938 163.8125 125.890625 C 167.050781 128.800781 169.683594 132.3125 171.554688 136.261719 C 168.542969 122.957031 174.5 109.261719 186.246094 102.378906 C 175.808594 110.921875 171.386719 124.851562 174.996094 137.863281 C 175.265625 136.824219 175.910156 135.910156 176.78125 135.304688 C 175.101562 147.800781 179.042969 160.375 187.511719 169.6875 C 195.996094 160.375 199.917969 147.800781 198.238281 135.304688 C 199.128906 135.929688 199.753906 136.824219 200.023438 137.863281 C 203.613281 124.851562 199.214844 110.945312 188.777344 102.378906 C 200.542969 109.238281 206.496094 122.957031 203.488281 136.261719 C 205.355469 132.3125 207.96875 128.800781 211.226562 125.890625 C 218.074219 121.460938 220.835938 112.792969 217.804688 105.207031 C 221.0625 110.695312 221.519531 117.386719 219.09375 123.269531 C 222.785156 121.941406 226.851562 122.042969 230.464844 123.582031 C 223.742188 123.375 217.226562 126.015625 212.578125 130.878906 C 206.558594 138.214844 202.949219 146.40625 201.703125 155.40625 C 207.824219 151.894531 214.902344 150.417969 221.894531 151.25 C 231.355469 152.371094 240.300781 146.636719 243.246094 137.550781 C 241.460938 144.222656 237.0625 149.878906 231.042969 153.246094 C 236.542969 156.964844 240.632812 162.414062 242.6875 168.730469 C 240.070312 162.996094 235.484375 158.402344 229.777344 155.800781 C 229.988281 156.757812 229.945312 157.757812 229.65625 158.691406 C 223.347656 152.828125 213.71875 152.496094 207.035156 157.921875 C 211.933594 157.757812 216.683594 159.667969 220.109375 163.160156 C 223.554688 166.652344 225.359375 171.457031 225.109375 176.359375 C 224.300781 168.566406 217.992188 162.496094 210.191406 161.976562 C 202.386719 161.476562 195.355469 166.675781 193.546875 174.304688 C 191.347656 185.070312 191.039062 196.128906 192.636719 206.980469 L 245.050781 206.980469 C 245.921875 206.980469 246.628906 207.6875 246.628906 208.582031 C 246.628906 209.453125 245.921875 210.160156 245.050781 210.160156 L 130.03125 210.160156 C 129.160156 210.160156 128.453125 209.453125 128.453125 208.582031 C 128.453125 207.707031 129.160156 206.980469 130.03125 206.980469 L 182.445312 206.980469 Z M 182.425781 206.980469 " fill-opacity="1" fill-rule="evenodd"/></g></svg>